<svg width="12" height="13" viewBox="0 0 12 13" fill="none" xmlns="http://www.w3.org/2000/svg">
<path d="M11.2741 10.6732C11.3505 10.7493 11.4111 10.8398 11.4525 10.9394C11.4938 11.039 11.5151 11.1458 11.5151 11.2536C11.5151 11.3615 11.4938 11.4683 11.4525 11.5679C11.4111 11.6675 11.3505 11.7579 11.2741 11.8341C11.1195 11.9867 10.9109 12.0723 10.6937 12.0723C10.4764 12.0723 10.2679 11.9867 10.1132 11.8341L5.77709 7.49791L1.44094 11.8341C1.2863 11.9867 1.07778 12.0723 0.860505 12.0723C0.643235 12.0723 0.434707 11.9867 0.280075 11.8341C0.203682 11.7579 0.143069 11.6675 0.101711 11.5679C0.0603523 11.4683 0.0390625 11.3615 0.0390625 11.2536C0.0390625 11.1458 0.0603523 11.039 0.101711 10.9394C0.143069 10.8398 0.203682 10.7493 0.280075 10.6732L4.61623 6.33705L0.280075 2.00089C0.126136 1.84695 0.039653 1.63816 0.039653 1.42046C0.039653 1.31267 0.0608851 1.20593 0.102137 1.10634C0.143388 1.00674 0.203852 0.916255 0.280075 0.840031C0.356298 0.763808 0.446788 0.703345 0.546379 0.662093C0.645969 0.620841 0.752709 0.599609 0.860505 0.599609C1.07821 0.599609 1.287 0.686092 1.44094 0.840031L5.77709 5.17619L10.1132 0.840031C10.2672 0.686092 10.476 0.599609 10.6937 0.599609C10.9114 0.599609 11.1202 0.686092 11.2741 0.840031C11.428 0.993971 11.5145 1.20276 11.5145 1.42046C11.5145 1.63816 11.428 1.84695 11.2741 2.00089L6.93795 6.33705L11.2741 10.6732Z" fill="white"/>
</svg>
