<svg width="12" height="12" viewBox="0 0 12 12" fill="none" xmlns="http://www.w3.org/2000/svg">
<path d="M11.7566 10.4342C11.8298 10.5072 11.8878 10.5938 11.9275 10.6893C11.9671 10.7847 11.9875 10.887 11.9875 10.9904C11.9875 11.0937 11.9671 11.196 11.9275 11.2915C11.8878 11.3869 11.8298 11.4736 11.7566 11.5465C11.6084 11.6928 11.4086 11.7748 11.2004 11.7748C10.9922 11.7748 10.7924 11.6928 10.6443 11.5465L6.48947 7.39174L2.33469 11.5465C2.18653 11.6928 1.98672 11.7748 1.77854 11.7748C1.57036 11.7748 1.37055 11.6928 1.22239 11.5465C1.14919 11.4736 1.09111 11.3869 1.05148 11.2915C1.01185 11.196 0.991455 11.0937 0.991455 10.9904C0.991455 10.887 1.01185 10.7847 1.05148 10.6893C1.09111 10.5938 1.14919 10.5072 1.22239 10.4342L5.37717 6.27943L1.22239 2.12465C1.07489 1.97715 0.992021 1.7771 0.992021 1.5685C0.992021 1.46521 1.01236 1.36294 1.05189 1.26751C1.09142 1.17209 1.14935 1.08538 1.22239 1.01235C1.29542 0.939313 1.38213 0.881379 1.47755 0.841853C1.57298 0.802326 1.67525 0.781982 1.77854 0.781982C1.98714 0.781982 2.18719 0.864848 2.33469 1.01235L6.48947 5.16713L10.6443 1.01235C10.7918 0.864848 10.9918 0.781982 11.2004 0.781982C11.409 0.781982 11.6091 0.864848 11.7566 1.01235C11.9041 1.15985 11.9869 1.3599 11.9869 1.5685C11.9869 1.7771 11.9041 1.97715 11.7566 2.12465L7.60178 6.27943L11.7566 10.4342Z" fill="white"/>
</svg>
