<svg width="63" height="63" viewBox="0 0 63 63" fill="none" xmlns="http://www.w3.org/2000/svg">
<path fill-rule="evenodd" clip-rule="evenodd" d="M31.7071 48.9677C41.9854 48.9677 50.3178 40.6353 50.3178 30.357C50.3178 20.0787 41.9854 11.7463 31.7071 11.7463C21.4288 11.7463 13.0964 20.0787 13.0964 30.357C13.0964 40.6353 21.4288 48.9677 31.7071 48.9677ZM31.7071 51.0355C43.1278 51.0355 52.3856 41.7778 52.3856 30.357C52.3856 18.9362 43.1278 9.67847 31.7071 9.67847C20.2863 9.67847 11.0286 18.9362 11.0286 30.357C11.0286 41.7778 20.2863 51.0355 31.7071 51.0355Z" fill="#AEAEAE"/>
<path d="M19.3 42.3816C19.3 41.3135 20.0982 40.4109 21.1611 40.2931C29.1378 39.4101 34.3126 39.4897 42.2718 40.3127C42.6692 40.3544 43.0459 40.511 43.3558 40.7633C43.6658 41.0156 43.8955 41.3527 44.017 41.7334C44.1385 42.1142 44.1465 42.522 44.04 42.9072C43.9335 43.2924 43.7172 43.6382 43.4174 43.9025C34.0241 52.0902 28.656 51.9775 19.9617 43.9108C19.5378 43.5179 19.3 42.9585 19.3 42.3816Z" fill="#AEAEAE"/>
<path fill-rule="evenodd" clip-rule="evenodd" d="M42.1653 41.3404C34.2692 40.5236 29.1688 40.4471 21.2738 41.3208C21.0139 41.3511 20.7743 41.4762 20.6009 41.6721C20.4275 41.868 20.3324 42.121 20.3339 42.3826C20.3339 42.6783 20.457 42.9585 20.6648 43.1529C24.9742 47.1501 28.2393 48.9563 31.4311 48.9677C34.6342 48.9791 38.0751 47.1873 42.7381 43.124C42.8862 42.9921 42.9929 42.8201 43.0451 42.6287C43.0973 42.4374 43.0927 42.235 43.0321 42.0462C42.9714 41.8574 42.8572 41.6903 42.7033 41.5652C42.5494 41.4401 42.3625 41.3613 42.1653 41.3404ZM21.0474 39.2654C29.1078 38.3731 34.3581 38.4537 42.3793 39.284C42.9772 39.3464 43.544 39.5818 44.0102 39.9613C44.4764 40.3409 44.8218 40.8481 45.0042 41.421C45.1865 41.9938 45.1979 42.6074 45.0369 43.1866C44.8759 43.7658 44.5495 44.2855 44.0977 44.6821C39.3675 48.8054 35.4282 51.0511 31.4249 51.0356C27.4101 51.0211 23.6446 48.7371 19.2597 44.6686C18.9457 44.3762 18.6955 44.0222 18.5245 43.6287C18.3536 43.2352 18.2656 42.8106 18.2661 42.3816C18.2646 41.6107 18.5475 40.8664 19.0607 40.2912C19.5739 39.716 20.2813 39.3514 21.0474 39.2654Z" fill="#AEAEAE"/>
<path d="M39.9786 26.2214C39.9786 28.4151 39.1071 30.5189 37.5559 32.0701C36.0047 33.6213 33.9009 34.4928 31.7071 34.4928C29.5134 34.4928 27.4096 33.6213 25.8584 32.0701C24.3072 30.5189 23.4357 28.4151 23.4357 26.2214C23.4357 24.0276 24.3072 21.9238 25.8584 20.3726C27.4096 18.8214 29.5134 17.95 31.7071 17.95C33.9009 17.95 36.0047 18.8214 37.5559 20.3726C39.1071 21.9238 39.9786 24.0276 39.9786 26.2214Z" fill="#AEAEAE"/>
<path fill-rule="evenodd" clip-rule="evenodd" d="M31.7071 32.4249C33.3524 32.4249 34.9303 31.7713 36.0937 30.6079C37.2571 29.4446 37.9107 27.8667 37.9107 26.2214C37.9107 24.5761 37.2571 22.9982 36.0937 21.8348C34.9303 20.6714 33.3524 20.0178 31.7071 20.0178C30.0619 20.0178 28.484 20.6714 27.3206 21.8348C26.1572 22.9982 25.5036 24.5761 25.5036 26.2214C25.5036 27.8667 26.1572 29.4446 27.3206 30.6079C28.484 31.7713 30.0619 32.4249 31.7071 32.4249ZM31.7071 34.4928C33.9009 34.4928 36.0047 33.6213 37.5559 32.0701C39.1071 30.5189 39.9786 28.4151 39.9786 26.2214C39.9786 24.0276 39.1071 21.9238 37.5559 20.3726C36.0047 18.8214 33.9009 17.95 31.7071 17.95C29.5134 17.95 27.4096 18.8214 25.8584 20.3726C24.3072 21.9238 23.4357 24.0276 23.4357 26.2214C23.4357 28.4151 24.3072 30.5189 25.8584 32.0701C27.4096 33.6213 29.5134 34.4928 31.7071 34.4928Z" fill="#AEAEAE"/>
</svg>
