<svg width="20" height="20" viewBox="0 0 20 20" fill="none" xmlns="http://www.w3.org/2000/svg">
<path fill-rule="evenodd" clip-rule="evenodd" d="M9.1665 9.1665V2.49984C9.1665 2.0396 9.5396 1.6665 9.99984 1.6665C10.4601 1.6665 10.8332 2.0396 10.8332 2.49984V9.1665H17.4998C17.9601 9.1665 18.3332 9.5396 18.3332 9.99984C18.3332 10.4601 17.9601 10.8332 17.4998 10.8332H10.8332V17.4998C10.8332 17.9601 10.4601 18.3332 9.99984 18.3332C9.5396 18.3332 9.1665 17.9601 9.1665 17.4998V10.8332H2.49984C2.0396 10.8332 1.6665 10.4601 1.6665 9.99984C1.6665 9.5396 2.0396 9.1665 2.49984 9.1665H9.1665Z" fill="#313144"/>
</svg>
