<svg width="16" height="17" viewBox="0 0 16 17" fill="none" xmlns="http://www.w3.org/2000/svg">
<path fill-rule="evenodd" clip-rule="evenodd" d="M7.3281 7.99683V2.87183C7.3281 2.51802 7.61491 2.2312 7.96872 2.2312C8.32253 2.2312 8.60935 2.51802 8.60935 2.87183V7.99683H13.7343C14.0882 7.99683 14.375 8.28364 14.375 8.63745C14.375 8.99126 14.0882 9.27808 13.7343 9.27808H8.60935V14.4031C8.60935 14.7569 8.32253 15.0437 7.96872 15.0437C7.61491 15.0437 7.3281 14.7569 7.3281 14.4031V9.27808H2.20309C1.84929 9.27808 1.56247 8.99126 1.56247 8.63745C1.56247 8.28364 1.84929 7.99683 2.20309 7.99683H7.3281Z" fill="#313144"/>
</svg>
