<svg width="16" height="17" viewBox="0 0 16 17" fill="none" xmlns="http://www.w3.org/2000/svg">
<path fill-rule="evenodd" clip-rule="evenodd" d="M7.32813 7.99683V2.87183C7.32813 2.51802 7.61494 2.2312 7.96875 2.2312C8.32256 2.2312 8.60938 2.51802 8.60938 2.87183V7.99683H13.7344C14.0882 7.99683 14.375 8.28364 14.375 8.63745C14.375 8.99126 14.0882 9.27808 13.7344 9.27808H8.60938V14.4031C8.60938 14.7569 8.32256 15.0437 7.96875 15.0437C7.61494 15.0437 7.32813 14.7569 7.32813 14.4031V9.27808H2.20313C1.84932 9.27808 1.5625 8.99126 1.5625 8.63745C1.5625 8.28364 1.84932 7.99683 2.20313 7.99683H7.32813Z" fill="#313144"/>
</svg>
