<svg width="18" height="17" viewBox="0 0 18 17" fill="none" xmlns="http://www.w3.org/2000/svg">
<path fill-rule="evenodd" clip-rule="evenodd" d="M8.31361 7.8268V2.35836C8.31361 1.98084 8.61965 1.6748 8.99717 1.6748C9.37468 1.6748 9.68072 1.98084 9.68072 2.35836V7.8268H15.1492C15.5267 7.8268 15.8327 8.13283 15.8327 8.51035C15.8327 8.88787 15.5267 9.1939 15.1492 9.1939H9.68072V14.6623C9.68072 15.0399 9.37468 15.3459 8.99717 15.3459C8.61965 15.3459 8.31361 15.0399 8.31361 14.6623V9.1939H2.84518C2.46766 9.1939 2.16162 8.88787 2.16162 8.51035C2.16162 8.13283 2.46766 7.8268 2.84518 7.8268H8.31361Z" fill="#313144"/>
</svg>
