<svg width="16" height="15" viewBox="0 0 16 15" fill="none" xmlns="http://www.w3.org/2000/svg">
<path fill-rule="evenodd" clip-rule="evenodd" d="M7.37817 7.20312V2.4451C7.37817 2.11662 7.64445 1.85034 7.97293 1.85034C8.3014 1.85034 8.56768 2.11662 8.56768 2.4451V7.20312H13.3257C13.6542 7.20312 13.9205 7.4694 13.9205 7.79788C13.9205 8.12635 13.6542 8.39263 13.3257 8.39263H8.56768V13.1507C8.56768 13.4791 8.3014 13.7454 7.97293 13.7454C7.64445 13.7454 7.37817 13.4791 7.37817 13.1507V8.39263H2.62014C2.29167 8.39263 2.02539 8.12635 2.02539 7.79788C2.02539 7.4694 2.29167 7.20312 2.62014 7.20312H7.37817Z" fill="#313144"/>
</svg>
