<svg width="17" height="16" viewBox="0 0 17 16" fill="none" xmlns="http://www.w3.org/2000/svg">
<path fill-rule="evenodd" clip-rule="evenodd" d="M7.9292 7.55469V2.45573C7.9292 2.10372 8.21456 1.81836 8.56657 1.81836C8.91858 1.81836 9.20394 2.10372 9.20394 2.45573V7.55469H14.3029C14.6549 7.55469 14.9403 7.84005 14.9403 8.19206C14.9403 8.54407 14.6549 8.82943 14.3029 8.82943H9.20394V13.9284C9.20394 14.2804 8.91858 14.5658 8.56657 14.5658C8.21456 14.5658 7.9292 14.2804 7.9292 13.9284V8.82943H2.83024C2.47823 8.82943 2.19287 8.54407 2.19287 8.19206C2.19287 7.84005 2.47823 7.55469 2.83024 7.55469H7.9292Z" fill="#313144"/>
</svg>
