<svg width="15" height="16" viewBox="0 0 15 16" fill="none" xmlns="http://www.w3.org/2000/svg">
<path fill-rule="evenodd" clip-rule="evenodd" d="M6.84527 7.43023V2.45839C6.84527 2.11516 7.12351 1.83691 7.46675 1.83691C7.80998 1.83691 8.08823 2.11516 8.08823 2.45839V7.43023H13.0601C13.4033 7.43023 13.6815 7.70847 13.6815 8.05171C13.6815 8.39494 13.4033 8.67319 13.0601 8.67319H8.08823V13.645C8.08823 13.9883 7.80998 14.2665 7.46675 14.2665C7.12351 14.2665 6.84527 13.9883 6.84527 13.645V8.67319H1.87343C1.5302 8.67319 1.25195 8.39494 1.25195 8.05171C1.25195 7.70847 1.5302 7.43023 1.87343 7.43023H6.84527Z" fill="#313144"/>
</svg>
