<svg width="15" height="16" viewBox="0 0 15 16" fill="none" xmlns="http://www.w3.org/2000/svg">
<path fill-rule="evenodd" clip-rule="evenodd" d="M6.84429 7.43023V2.45839C6.84429 2.11516 7.12254 1.83691 7.46577 1.83691C7.809 1.83691 8.08725 2.11516 8.08725 2.45839V7.43023H13.0591C13.4023 7.43023 13.6806 7.70847 13.6806 8.05171C13.6806 8.39494 13.4023 8.67319 13.0591 8.67319H8.08725V13.645C8.08725 13.9883 7.809 14.2665 7.46577 14.2665C7.12254 14.2665 6.84429 13.9883 6.84429 13.645V8.67319H1.87246C1.52922 8.67319 1.25098 8.39494 1.25098 8.05171C1.25098 7.70847 1.52922 7.43023 1.87246 7.43023H6.84429Z" fill="#313144"/>
</svg>
