<svg width="20" height="20" viewBox="0 0 20 20" fill="none" xmlns="http://www.w3.org/2000/svg">
<path fill-rule="evenodd" clip-rule="evenodd" d="M9.16699 9.16675V2.50008C9.16699 2.03984 9.54009 1.66675 10.0003 1.66675C10.4606 1.66675 10.8337 2.03984 10.8337 2.50008V9.16675H17.5003C17.9606 9.16675 18.3337 9.53984 18.3337 10.0001C18.3337 10.4603 17.9606 10.8334 17.5003 10.8334H10.8337V17.5001C10.8337 17.9603 10.4606 18.3334 10.0003 18.3334C9.54009 18.3334 9.16699 17.9603 9.16699 17.5001V10.8334H2.50033C2.04009 10.8334 1.66699 10.4603 1.66699 10.0001C1.66699 9.53984 2.04009 9.16675 2.50033 9.16675H9.16699Z" fill="#313144"/>
</svg>
