<svg width="14" height="14" viewBox="0 0 14 14" fill="none" xmlns="http://www.w3.org/2000/svg">
<path fill-rule="evenodd" clip-rule="evenodd" d="M6.38102 6.42619V1.8336C6.38102 1.51654 6.63804 1.25952 6.9551 1.25952C7.27215 1.25952 7.52917 1.51654 7.52917 1.8336V6.42619H12.1218C12.4388 6.42619 12.6958 6.68321 12.6958 7.00026C12.6958 7.31731 12.4388 7.57434 12.1218 7.57434H7.52917V12.1669C7.52917 12.484 7.27215 12.741 6.9551 12.741C6.63804 12.741 6.38102 12.484 6.38102 12.1669V7.57434H1.78843C1.47138 7.57434 1.21436 7.31731 1.21436 7.00026C1.21436 6.68321 1.47138 6.42619 1.78843 6.42619H6.38102Z" fill="#313144"/>
</svg>
