<svg width="15" height="15" viewBox="0 0 15 15" fill="none" xmlns="http://www.w3.org/2000/svg">
<path fill-rule="evenodd" clip-rule="evenodd" d="M6.73369 7.05913V2.17345C6.73369 1.83617 7.00712 1.56274 7.3444 1.56274C7.68169 1.56274 7.95511 1.83617 7.95511 2.17345V7.05913H12.8408C13.1781 7.05913 13.4515 7.33256 13.4515 7.66984C13.4515 8.00713 13.1781 8.28055 12.8408 8.28055H7.95511V13.1662C7.95511 13.5035 7.68169 13.7769 7.3444 13.7769C7.00712 13.7769 6.73369 13.5035 6.73369 13.1662V8.28055H1.84801C1.51073 8.28055 1.2373 8.00713 1.2373 7.66984C1.2373 7.33256 1.51073 7.05913 1.84801 7.05913H6.73369Z" fill="#313144"/>
</svg>
