<svg width="17" height="17" viewBox="0 0 17 17" fill="none" xmlns="http://www.w3.org/2000/svg">
<path fill-rule="evenodd" clip-rule="evenodd" d="M7.75844 7.8268V2.35836C7.75844 1.98084 8.06447 1.6748 8.44199 1.6748C8.81951 1.6748 9.12555 1.98084 9.12555 2.35836V7.8268H14.594C14.9715 7.8268 15.2775 8.13283 15.2775 8.51035C15.2775 8.88787 14.9715 9.1939 14.594 9.1939H9.12555V14.6623C9.12555 15.0399 8.81951 15.3459 8.44199 15.3459C8.06447 15.3459 7.75844 15.0399 7.75844 14.6623V9.1939H2.29C1.91248 9.1939 1.60645 8.88787 1.60645 8.51035C1.60645 8.13283 1.91248 7.8268 2.29 7.8268H7.75844Z" fill="#313144"/>
</svg>
