<svg width="16" height="16" viewBox="0 0 16 16" fill="none" xmlns="http://www.w3.org/2000/svg">
<path fill-rule="evenodd" clip-rule="evenodd" d="M6.97906 7.43023V2.45839C6.97906 2.11516 7.2573 1.83691 7.60054 1.83691C7.94377 1.83691 8.22202 2.11516 8.22202 2.45839V7.43023H13.1939C13.5371 7.43023 13.8153 7.70847 13.8153 8.05171C13.8153 8.39494 13.5371 8.67319 13.1939 8.67319H8.22202V13.645C8.22202 13.9883 7.94377 14.2665 7.60054 14.2665C7.2573 14.2665 6.97906 13.9883 6.97906 13.645V8.67319H2.00722C1.66399 8.67319 1.38574 8.39494 1.38574 8.05171C1.38574 7.70847 1.66399 7.43023 2.00722 7.43023H6.97906Z" fill="#313144"/>
</svg>
