<svg width="17" height="16" viewBox="0 0 17 16" fill="none" xmlns="http://www.w3.org/2000/svg">
<path fill-rule="evenodd" clip-rule="evenodd" d="M7.72589 7.55469V2.45573C7.72589 2.10372 8.01125 1.81836 8.36326 1.81836C8.71527 1.81836 9.00063 2.10372 9.00063 2.45573V7.55469H14.0996C14.4516 7.55469 14.737 7.84005 14.737 8.19206C14.737 8.54407 14.4516 8.82943 14.0996 8.82943H9.00063V13.9284C9.00063 14.2804 8.71527 14.5658 8.36326 14.5658C8.01125 14.5658 7.72589 14.2804 7.72589 13.9284V8.82943H2.62693C2.27492 8.82943 1.98956 8.54407 1.98956 8.19206C1.98956 7.84005 2.27492 7.55469 2.62693 7.55469H7.72589Z" fill="#313144"/>
</svg>
