<svg width="17" height="16" viewBox="0 0 17 16" fill="none" xmlns="http://www.w3.org/2000/svg">
<path fill-rule="evenodd" clip-rule="evenodd" d="M7.82715 7.55469V2.45573C7.82715 2.10372 8.11251 1.81836 8.46452 1.81836C8.81653 1.81836 9.10189 2.10372 9.10189 2.45573V7.55469H14.2008C14.5529 7.55469 14.8382 7.84005 14.8382 8.19206C14.8382 8.54407 14.5529 8.82943 14.2008 8.82943H9.10189V13.9284C9.10189 14.2804 8.81653 14.5658 8.46452 14.5658C8.11251 14.5658 7.82715 14.2804 7.82715 13.9284V8.82943H2.72819C2.37618 8.82943 2.09082 8.54407 2.09082 8.19206C2.09082 7.84005 2.37618 7.55469 2.72819 7.55469H7.82715Z" fill="#313144"/>
</svg>
