<svg width="16" height="15" viewBox="0 0 16 15" fill="none" xmlns="http://www.w3.org/2000/svg">
<path fill-rule="evenodd" clip-rule="evenodd" d="M7.56304 6.83746V1.86562C7.56304 1.52239 7.84129 1.24414 8.18452 1.24414C8.52775 1.24414 8.806 1.52239 8.806 1.86562V6.83746H13.7778C14.1211 6.83746 14.3993 7.1157 14.3993 7.45893C14.3993 7.80217 14.1211 8.08041 13.7778 8.08041H8.806V13.0522C8.806 13.3955 8.52775 13.6737 8.18452 13.6737C7.84129 13.6737 7.56304 13.3955 7.56304 13.0522V8.08041H2.59121C2.24797 8.08041 1.96973 7.80217 1.96973 7.45893C1.96973 7.1157 2.24797 6.83746 2.59121 6.83746H7.56304Z" fill="#313144"/>
</svg>
