<svg width="16" height="15" viewBox="0 0 16 15" fill="none" xmlns="http://www.w3.org/2000/svg">
<path fill-rule="evenodd" clip-rule="evenodd" d="M7.32574 6.83746V1.86562C7.32574 1.52239 7.60398 1.24414 7.94722 1.24414C8.29045 1.24414 8.5687 1.52239 8.5687 1.86562V6.83746H13.5405C13.8838 6.83746 14.162 7.1157 14.162 7.45893C14.162 7.80217 13.8838 8.08041 13.5405 8.08041H8.5687V13.0522C8.5687 13.3955 8.29045 13.6737 7.94722 13.6737C7.60398 13.6737 7.32574 13.3955 7.32574 13.0522V8.08041H2.3539C2.01067 8.08041 1.73242 7.80217 1.73242 7.45893C1.73242 7.1157 2.01067 6.83746 2.3539 6.83746H7.32574Z" fill="#313144"/>
</svg>
