<svg width="16" height="16" viewBox="0 0 16 16" fill="none" xmlns="http://www.w3.org/2000/svg">
<path fill-rule="evenodd" clip-rule="evenodd" d="M7.11187 7.43023V2.45839C7.11187 2.11516 7.39012 1.83691 7.73335 1.83691C8.07658 1.83691 8.35483 2.11516 8.35483 2.45839V7.43023H13.3267C13.6699 7.43023 13.9481 7.70847 13.9481 8.05171C13.9481 8.39494 13.6699 8.67319 13.3267 8.67319H8.35483V13.645C8.35483 13.9883 8.07658 14.2665 7.73335 14.2665C7.39012 14.2665 7.11187 13.9883 7.11187 13.645V8.67319H2.14003C1.7968 8.67319 1.51855 8.39494 1.51855 8.05171C1.51855 7.70847 1.7968 7.43023 2.14003 7.43023H7.11187Z" fill="#313144"/>
</svg>
