<svg width="18" height="17" viewBox="0 0 18 17" fill="none" xmlns="http://www.w3.org/2000/svg">
<path fill-rule="evenodd" clip-rule="evenodd" d="M8.21693 7.8268V2.35836C8.21693 1.98084 8.52297 1.6748 8.90049 1.6748C9.278 1.6748 9.58404 1.98084 9.58404 2.35836V7.8268H15.0525C15.43 7.8268 15.736 8.13283 15.736 8.51035C15.736 8.88787 15.43 9.1939 15.0525 9.1939H9.58404V14.6623C9.58404 15.0399 9.278 15.3459 8.90049 15.3459C8.52297 15.3459 8.21693 15.0399 8.21693 14.6623V9.1939H2.7485C2.37098 9.1939 2.06494 8.88787 2.06494 8.51035C2.06494 8.13283 2.37098 7.8268 2.7485 7.8268H8.21693Z" fill="#313144"/>
</svg>
