<svg width="16" height="16" viewBox="0 0 16 16" fill="none" xmlns="http://www.w3.org/2000/svg">
<path fill-rule="evenodd" clip-rule="evenodd" d="M7.56304 7.43023V2.45839C7.56304 2.11516 7.84129 1.83691 8.18452 1.83691C8.52775 1.83691 8.806 2.11516 8.806 2.45839V7.43023H13.7778C14.1211 7.43023 14.3993 7.70847 14.3993 8.05171C14.3993 8.39494 14.1211 8.67319 13.7778 8.67319H8.806V13.645C8.806 13.9883 8.52775 14.2665 8.18452 14.2665C7.84129 14.2665 7.56304 13.9883 7.56304 13.645V8.67319H2.59121C2.24797 8.67319 1.96973 8.39494 1.96973 8.05171C1.96973 7.70847 2.24797 7.43023 2.59121 7.43023H7.56304Z" fill="#313144"/>
</svg>
