<svg width="16" height="17" viewBox="0 0 16 17" fill="none" xmlns="http://www.w3.org/2000/svg">
<path fill-rule="evenodd" clip-rule="evenodd" d="M7.64063 7.99683V2.87183C7.64063 2.51802 7.92744 2.2312 8.28125 2.2312C8.63506 2.2312 8.92188 2.51802 8.92188 2.87183V7.99683H14.0469C14.4007 7.99683 14.6875 8.28364 14.6875 8.63745C14.6875 8.99126 14.4007 9.27808 14.0469 9.27808H8.92188V14.4031C8.92188 14.7569 8.63506 15.0437 8.28125 15.0437C7.92744 15.0437 7.64063 14.7569 7.64063 14.4031V9.27808H2.51563C2.16182 9.27808 1.875 8.99126 1.875 8.63745C1.875 8.28364 2.16182 7.99683 2.51563 7.99683H7.64063Z" fill="#313144"/>
</svg>
