<svg width="17" height="17" viewBox="0 0 17 17" fill="none" xmlns="http://www.w3.org/2000/svg">
<path fill-rule="evenodd" clip-rule="evenodd" d="M7.75941 7.8268V2.35836C7.75941 1.98084 8.06545 1.6748 8.44297 1.6748C8.82048 1.6748 9.12652 1.98084 9.12652 2.35836V7.8268H14.595C14.9725 7.8268 15.2785 8.13283 15.2785 8.51035C15.2785 8.88787 14.9725 9.1939 14.595 9.1939H9.12652V14.6623C9.12652 15.0399 8.82048 15.3459 8.44297 15.3459C8.06545 15.3459 7.75941 15.0399 7.75941 14.6623V9.1939H2.29098C1.91346 9.1939 1.60742 8.88787 1.60742 8.51035C1.60742 8.13283 1.91346 7.8268 2.29098 7.8268H7.75941Z" fill="#313144"/>
</svg>
