<svg width="18" height="17" viewBox="0 0 18 17" fill="none" xmlns="http://www.w3.org/2000/svg">
<path fill-rule="evenodd" clip-rule="evenodd" d="M8.21742 7.8268V2.35836C8.21742 1.98084 8.52346 1.6748 8.90097 1.6748C9.27849 1.6748 9.58453 1.98084 9.58453 2.35836V7.8268H15.053C15.4305 7.8268 15.7365 8.13283 15.7365 8.51035C15.7365 8.88787 15.4305 9.1939 15.053 9.1939H9.58453V14.6623C9.58453 15.0399 9.27849 15.3459 8.90097 15.3459C8.52346 15.3459 8.21742 15.0399 8.21742 14.6623V9.1939H2.74898C2.37147 9.1939 2.06543 8.88787 2.06543 8.51035C2.06543 8.13283 2.37147 7.8268 2.74898 7.8268H8.21742Z" fill="#313144"/>
</svg>
