<svg width="15" height="15" viewBox="0 0 15 15" fill="none" xmlns="http://www.w3.org/2000/svg">
<path fill-rule="evenodd" clip-rule="evenodd" d="M7.23559 7.20312V2.4451C7.23559 2.11662 7.50187 1.85034 7.83035 1.85034C8.15882 1.85034 8.4251 2.11662 8.4251 2.4451V7.20312H13.1831C13.5116 7.20312 13.7779 7.4694 13.7779 7.79788C13.7779 8.12635 13.5116 8.39263 13.1831 8.39263H8.4251V13.1507C8.4251 13.4791 8.15882 13.7454 7.83035 13.7454C7.50187 13.7454 7.23559 13.4791 7.23559 13.1507V8.39263H2.47757C2.14909 8.39263 1.88281 8.12635 1.88281 7.79788C1.88281 7.4694 2.14909 7.20312 2.47757 7.20312H7.23559Z" fill="#313144"/>
</svg>
