<svg width="20" height="20" viewBox="0 0 20 20" fill="none" xmlns="http://www.w3.org/2000/svg">
<path fill-rule="evenodd" clip-rule="evenodd" d="M9.16675 9.1665V2.49984C9.16675 2.0396 9.53984 1.6665 10.0001 1.6665C10.4603 1.6665 10.8334 2.0396 10.8334 2.49984V9.1665H17.5001C17.9603 9.1665 18.3334 9.5396 18.3334 9.99984C18.3334 10.4601 17.9603 10.8332 17.5001 10.8332H10.8334V17.4998C10.8334 17.9601 10.4603 18.3332 10.0001 18.3332C9.53984 18.3332 9.16675 17.9601 9.16675 17.4998V10.8332H2.50008C2.03984 10.8332 1.66675 10.4601 1.66675 9.99984C1.66675 9.5396 2.03984 9.1665 2.50008 9.1665H9.16675Z" fill="#313144"/>
</svg>
