<svg width="18" height="17" viewBox="0 0 18 17" fill="none" xmlns="http://www.w3.org/2000/svg">
<path fill-rule="evenodd" clip-rule="evenodd" d="M8.3141 7.8268V2.35836C8.3141 1.98084 8.62014 1.6748 8.99765 1.6748C9.37517 1.6748 9.68121 1.98084 9.68121 2.35836V7.8268H15.1496C15.5272 7.8268 15.8332 8.13283 15.8332 8.51035C15.8332 8.88787 15.5272 9.1939 15.1496 9.1939H9.68121V14.6623C9.68121 15.0399 9.37517 15.3459 8.99765 15.3459C8.62014 15.3459 8.3141 15.0399 8.3141 14.6623V9.1939H2.84566C2.46815 9.1939 2.16211 8.88787 2.16211 8.51035C2.16211 8.13283 2.46815 7.8268 2.84566 7.8268H8.3141Z" fill="#313144"/>
</svg>
