<svg width="16" height="15" viewBox="0 0 16 15" fill="none" xmlns="http://www.w3.org/2000/svg">
<path fill-rule="evenodd" clip-rule="evenodd" d="M7.37939 7.20312V2.4451C7.37939 2.11662 7.64567 1.85034 7.97415 1.85034C8.30262 1.85034 8.5689 2.11662 8.5689 2.4451V7.20312H13.3269C13.6554 7.20312 13.9217 7.4694 13.9217 7.79788C13.9217 8.12635 13.6554 8.39263 13.3269 8.39263H8.5689V13.1507C8.5689 13.4791 8.30262 13.7454 7.97415 13.7454C7.64567 13.7454 7.37939 13.4791 7.37939 13.1507V8.39263H2.62136C2.29289 8.39263 2.02661 8.12635 2.02661 7.79788C2.02661 7.4694 2.29289 7.20312 2.62136 7.20312H7.37939Z" fill="#313144"/>
</svg>
