<svg width="16" height="15" viewBox="0 0 16 15" fill="none" xmlns="http://www.w3.org/2000/svg">
<path fill-rule="evenodd" clip-rule="evenodd" d="M7.33843 6.83746V1.86562C7.33843 1.52239 7.61668 1.24414 7.95991 1.24414C8.30314 1.24414 8.58139 1.52239 8.58139 1.86562V6.83746H13.5532C13.8965 6.83746 14.1747 7.1157 14.1747 7.45893C14.1747 7.80217 13.8965 8.08041 13.5532 8.08041H8.58139V13.0522C8.58139 13.3955 8.30314 13.6737 7.95991 13.6737C7.61668 13.6737 7.33843 13.3955 7.33843 13.0522V8.08041H2.3666C2.02336 8.08041 1.74512 7.80217 1.74512 7.45893C1.74512 7.1157 2.02336 6.83746 2.3666 6.83746H7.33843Z" fill="#313144"/>
</svg>
