<svg width="16" height="16" viewBox="0 0 16 16" fill="none" xmlns="http://www.w3.org/2000/svg">
<path fill-rule="evenodd" clip-rule="evenodd" d="M7.24566 7.43023V2.45839C7.24566 2.11516 7.5239 1.83691 7.86714 1.83691C8.21037 1.83691 8.48862 2.11516 8.48862 2.45839V7.43023H13.4605C13.8037 7.43023 14.0819 7.70847 14.0819 8.05171C14.0819 8.39494 13.8037 8.67319 13.4605 8.67319H8.48862V13.645C8.48862 13.9883 8.21037 14.2665 7.86714 14.2665C7.5239 14.2665 7.24566 13.9883 7.24566 13.645V8.67319H2.27382C1.93059 8.67319 1.65234 8.39494 1.65234 8.05171C1.65234 7.70847 1.93059 7.43023 2.27382 7.43023H7.24566Z" fill="#313144"/>
</svg>
