<svg width="15" height="15" viewBox="0 0 15 15" fill="none" xmlns="http://www.w3.org/2000/svg">
<path fill-rule="evenodd" clip-rule="evenodd" d="M7.23657 7.20312V2.4451C7.23657 2.11662 7.50285 1.85034 7.83132 1.85034C8.1598 1.85034 8.42608 2.11662 8.42608 2.4451V7.20312H13.1841C13.5126 7.20312 13.7789 7.4694 13.7789 7.79788C13.7789 8.12635 13.5126 8.39263 13.1841 8.39263H8.42608V13.1507C8.42608 13.4791 8.1598 13.7454 7.83132 13.7454C7.50285 13.7454 7.23657 13.4791 7.23657 13.1507V8.39263H2.47854C2.15007 8.39263 1.88379 8.12635 1.88379 7.79788C1.88379 7.4694 2.15007 7.20312 2.47854 7.20312H7.23657Z" fill="#313144"/>
</svg>
