<svg width="16" height="15" viewBox="0 0 16 15" fill="none" xmlns="http://www.w3.org/2000/svg">
<path fill-rule="evenodd" clip-rule="evenodd" d="M7.37915 7.20312V2.4451C7.37915 2.11662 7.64543 1.85034 7.9739 1.85034C8.30238 1.85034 8.56866 2.11662 8.56866 2.4451V7.20312H13.3267C13.6552 7.20312 13.9214 7.4694 13.9214 7.79788C13.9214 8.12635 13.6552 8.39263 13.3267 8.39263H8.56866V13.1507C8.56866 13.4791 8.30238 13.7454 7.9739 13.7454C7.64543 13.7454 7.37915 13.4791 7.37915 13.1507V8.39263H2.62112C2.29265 8.39263 2.02637 8.12635 2.02637 7.79788C2.02637 7.4694 2.29265 7.20312 2.62112 7.20312H7.37915Z" fill="#313144"/>
</svg>
