<svg width="14" height="14" viewBox="0 0 14 14" fill="none" xmlns="http://www.w3.org/2000/svg">
<path fill-rule="evenodd" clip-rule="evenodd" d="M6.38249 6.42619V1.8336C6.38249 1.51654 6.63951 1.25952 6.95656 1.25952C7.27361 1.25952 7.53064 1.51654 7.53064 1.8336V6.42619H12.1232C12.4403 6.42619 12.6973 6.68321 12.6973 7.00026C12.6973 7.31731 12.4403 7.57434 12.1232 7.57434H7.53064V12.1669C7.53064 12.484 7.27361 12.741 6.95656 12.741C6.63951 12.741 6.38249 12.484 6.38249 12.1669V7.57434H1.78989C1.47284 7.57434 1.21582 7.31731 1.21582 7.00026C1.21582 6.68321 1.47284 6.42619 1.78989 6.42619H6.38249Z" fill="#313144"/>
</svg>
