<svg width="18" height="18" viewBox="0 0 18 18" fill="none" xmlns="http://www.w3.org/2000/svg">
<path d="M8.11911 12.4681H9.58481V9.53671H12.5162V8.07101H9.58481V5.1396H8.11911V8.07101H5.1877V9.53671H8.11911V12.4681ZM8.85196 16.1324C7.83818 16.1324 6.88547 15.9399 5.99383 15.5549C5.1022 15.1704 4.3266 14.6484 3.66703 13.9888C3.00746 13.3292 2.48543 12.5536 2.10092 11.662C1.71593 10.7703 1.52344 9.81764 1.52344 8.80386C1.52344 7.79008 1.71593 6.83738 2.10092 5.94574C2.48543 5.0541 3.00746 4.2785 3.66703 3.61893C4.3266 2.95937 5.1022 2.43709 5.99383 2.0521C6.88547 1.66759 7.83818 1.47534 8.85196 1.47534C9.86574 1.47534 10.8184 1.66759 11.7101 2.0521C12.6017 2.43709 13.3773 2.95937 14.0369 3.61893C14.6965 4.2785 15.2185 5.0541 15.603 5.94574C15.988 6.83738 16.1805 7.79008 16.1805 8.80386C16.1805 9.81764 15.988 10.7703 15.603 11.662C15.2185 12.5536 14.6965 13.3292 14.0369 13.9888C13.3773 14.6484 12.6017 15.1704 11.7101 15.5549C10.8184 15.9399 9.86574 16.1324 8.85196 16.1324Z" fill="#F3EFEE"/>
</svg>
