<svg width="18" height="18" viewBox="0 0 18 18" fill="none" xmlns="http://www.w3.org/2000/svg">
<path d="M8.12155 12.4681H9.58725V9.53671H12.5187V8.07101H9.58725V5.1396H8.12155V8.07101H5.19014V9.53671H8.12155V12.4681ZM8.8544 16.1324C7.84062 16.1324 6.88791 15.9399 5.99628 15.5549C5.10464 15.1704 4.32904 14.6484 3.66947 13.9888C3.0099 13.3292 2.48787 12.5536 2.10337 11.662C1.71837 10.7703 1.52588 9.81764 1.52588 8.80386C1.52588 7.79008 1.71837 6.83738 2.10337 5.94574C2.48787 5.0541 3.0099 4.2785 3.66947 3.61893C4.32904 2.95937 5.10464 2.43709 5.99628 2.0521C6.88791 1.66759 7.84062 1.47534 8.8544 1.47534C9.86818 1.47534 10.8209 1.66759 11.7125 2.0521C12.6042 2.43709 13.3798 2.95937 14.0393 3.61893C14.6989 4.2785 15.2209 5.0541 15.6054 5.94574C15.9904 6.83738 16.1829 7.79008 16.1829 8.80386C16.1829 9.81764 15.9904 10.7703 15.6054 11.662C15.2209 12.5536 14.6989 13.3292 14.0393 13.9888C13.3798 14.6484 12.6042 15.1704 11.7125 15.5549C10.8209 15.9399 9.86818 16.1324 8.8544 16.1324Z" fill="#F3EFEE"/>
</svg>
