<svg width="18" height="18" viewBox="0 0 18 18" fill="none" xmlns="http://www.w3.org/2000/svg">
<path d="M8.12179 12.4681H9.58749V9.53671H12.5189V8.07101H9.58749V5.1396H8.12179V8.07101H5.19038V9.53671H8.12179V12.4681ZM8.85464 16.1324C7.84086 16.1324 6.88816 15.9399 5.99652 15.5549C5.10488 15.1704 4.32928 14.6484 3.66972 13.9888C3.01015 13.3292 2.48811 12.5536 2.10361 11.662C1.71862 10.7703 1.52612 9.81764 1.52612 8.80386C1.52612 7.79008 1.71862 6.83738 2.10361 5.94574C2.48811 5.0541 3.01015 4.2785 3.66972 3.61893C4.32928 2.95937 5.10488 2.43709 5.99652 2.0521C6.88816 1.66759 7.84086 1.47534 8.85464 1.47534C9.86842 1.47534 10.8211 1.66759 11.7128 2.0521C12.6044 2.43709 13.38 2.95937 14.0396 3.61893C14.6991 4.2785 15.2212 5.0541 15.6057 5.94574C15.9907 6.83738 16.1832 7.79008 16.1832 8.80386C16.1832 9.81764 15.9907 10.7703 15.6057 11.662C15.2212 12.5536 14.6991 13.3292 14.0396 13.9888C13.38 14.6484 12.6044 15.1704 11.7128 15.5549C10.8211 15.9399 9.86842 16.1324 8.85464 16.1324Z" fill="#F3EFEE"/>
</svg>
