<svg width="16" height="17" viewBox="0 0 16 17" fill="none" xmlns="http://www.w3.org/2000/svg">
<g clip-path="url(#clip0_66_17538)">
<path d="M4.39271 14.8191C4.04241 14.8191 3.74264 14.6945 3.4934 14.4453C3.24373 14.1956 3.1189 13.8956 3.1189 13.5453V3.35486C3.1189 3.00457 3.24373 2.70458 3.4934 2.45492C3.74264 2.20568 4.04241 2.08105 4.39271 2.08105H9.48794L13.3094 5.90248V7.87689L8.21413 12.9562V14.8191H4.39271ZM9.48794 14.8191V13.4657L12.768 10.1697L14.1373 11.5072L10.8414 14.8191H9.48794ZM14.5991 11.0614L13.2457 9.70799L13.6915 9.26216C13.8189 9.13477 13.9728 9.07108 14.1533 9.07108C14.3337 9.07108 14.4823 9.13477 14.5991 9.26216L15.0449 9.72391C15.1617 9.85129 15.2201 10.0025 15.2201 10.1774C15.2201 10.3527 15.1617 10.4988 15.0449 10.6156L14.5991 11.0614ZM8.85104 6.53939H12.0356L8.85104 3.35486V6.53939Z" fill="white"/>
</g>
<defs>
<clipPath id="clip0_66_17538">
<rect width="15.2857" height="15.2857" fill="white" transform="translate(0.571533 0.807129)"/>
</clipPath>
</defs>
</svg>
