<svg width="18" height="19" viewBox="0 0 18 19" fill="none" xmlns="http://www.w3.org/2000/svg">
<path d="M8.54931 13.0801H9.97672V10.2253H12.8315V8.79785H9.97672V5.94303H8.54931V8.79785H5.6945V10.2253H8.54931V13.0801ZM9.26302 16.6486C8.27573 16.6486 7.34791 16.4611 6.47957 16.0862C5.61123 15.7117 4.8559 15.2033 4.21356 14.561C3.57123 13.9187 3.06283 13.1633 2.68838 12.295C2.31344 11.4267 2.12598 10.4988 2.12598 9.51155C2.12598 8.52426 2.31344 7.59645 2.68838 6.72811C3.06283 5.85977 3.57123 5.10443 4.21356 4.4621C4.8559 3.81976 5.61123 3.31113 6.47957 2.9362C7.34791 2.56174 8.27573 2.37451 9.26302 2.37451C10.2503 2.37451 11.1781 2.56174 12.0465 2.9362C12.9148 3.31113 13.6701 3.81976 14.3125 4.4621C14.9548 5.10443 15.4632 5.85977 15.8377 6.72811C16.2126 7.59645 16.4001 8.52426 16.4001 9.51155C16.4001 10.4988 16.2126 11.4267 15.8377 12.295C15.4632 13.1633 14.9548 13.9187 14.3125 14.561C13.6701 15.2033 12.9148 15.7117 12.0465 16.0862C11.1781 16.4611 10.2503 16.6486 9.26302 16.6486Z" fill="#F3EFEE"/>
</svg>
