<svg width="16" height="16" viewBox="0 0 16 16" fill="none" xmlns="http://www.w3.org/2000/svg">
<g clip-path="url(#clip0_66_17536)">
<path d="M4.39271 14.076C4.04241 14.076 3.74264 13.9514 3.4934 13.7021C3.24373 13.4525 3.1189 13.1525 3.1189 12.8022V2.6117C3.1189 2.2614 3.24373 1.96142 3.4934 1.71175C3.74264 1.46251 4.04241 1.33789 4.39271 1.33789H9.48794L13.3094 5.15932V7.13372L8.21413 12.213V14.076H4.39271ZM9.48794 14.076V12.7226L12.768 9.42658L14.1373 10.7641L10.8414 14.076H9.48794ZM14.5991 10.3182L13.2457 8.96482L13.6915 8.51899C13.8189 8.39161 13.9728 8.32792 14.1533 8.32792C14.3337 8.32792 14.4823 8.39161 14.5991 8.51899L15.0449 8.98075C15.1617 9.10813 15.2201 9.25929 15.2201 9.43422C15.2201 9.60958 15.1617 9.75565 15.0449 9.87241L14.5991 10.3182ZM8.85104 5.79622H12.0356L8.85104 2.6117V5.79622Z" fill="white"/>
</g>
<defs>
<clipPath id="clip0_66_17536">
<rect width="15.2857" height="15.2857" fill="white" transform="translate(0.571533 0.064209)"/>
</clipPath>
</defs>
</svg>
