<svg width="19" height="19" viewBox="0 0 19 19" fill="none" xmlns="http://www.w3.org/2000/svg">
<path d="M8.73834 13.0274H10.2299V10.0443H13.213V8.5528H10.2299V5.5697H8.73834V8.5528H5.75524V10.0443H8.73834V13.0274ZM9.48412 16.7563C8.45246 16.7563 7.48296 16.5604 6.5756 16.1687C5.66824 15.7774 4.87896 15.2461 4.20776 14.5749C3.53656 13.9037 3.00532 13.1145 2.61404 12.2071C2.22226 11.2997 2.02637 10.3302 2.02637 9.29857C2.02637 8.26692 2.22226 7.29741 2.61404 6.39005C3.00532 5.48269 3.53656 4.69341 4.20776 4.02221C4.87896 3.35102 5.66824 2.81953 6.5756 2.42775C7.48296 2.03646 8.45246 1.84082 9.48412 1.84082C10.5158 1.84082 11.4853 2.03646 12.3926 2.42775C13.3 2.81953 14.0893 3.35102 14.7605 4.02221C15.4317 4.69341 15.9629 5.48269 16.3542 6.39005C16.746 7.29741 16.9419 8.26692 16.9419 9.29857C16.9419 10.3302 16.746 11.2997 16.3542 12.2071C15.9629 13.1145 15.4317 13.9037 14.7605 14.5749C14.0893 15.2461 13.3 15.7774 12.3926 16.1687C11.4853 16.5604 10.5158 16.7563 9.48412 16.7563Z" fill="#F3EFEE"/>
</svg>
