<svg width="63" height="63" viewBox="0 0 63 63" fill="none" xmlns="http://www.w3.org/2000/svg">
<path d="M23.1851 23.1232H34.4643V19.3635C34.4643 17.7969 33.916 16.4653 32.8194 15.3687C31.7228 14.2721 30.3912 13.7239 28.8247 13.7239C27.2581 13.7239 25.9265 14.2721 24.8299 15.3687C23.7334 16.4653 23.1851 17.7969 23.1851 19.3635V23.1232ZM40.1039 51.3213C37.5034 51.3213 35.287 50.4051 33.4548 48.5729C31.6213 46.7394 30.7045 44.5224 30.7045 41.9219C30.7045 39.3214 31.6213 37.1044 33.4548 35.2709C35.287 33.4387 37.5034 32.5226 40.1039 32.5226C42.7044 32.5226 44.9214 33.4387 46.7549 35.2709C48.5871 37.1044 49.5032 39.3214 49.5032 41.9219C49.5032 44.5224 48.5871 46.7394 46.7549 48.5729C44.9214 50.4051 42.7044 51.3213 40.1039 51.3213ZM29.2946 49.4414H17.5454C16.5115 49.4414 15.6267 49.0736 14.8911 48.3379C14.1542 47.601 13.7857 46.7156 13.7857 45.6816V26.8829C13.7857 25.849 14.1542 24.9636 14.8911 24.2267C15.6267 23.491 16.5115 23.1232 17.5454 23.1232H19.4253V19.3635C19.4253 16.763 20.3421 14.546 22.1756 12.7125C24.0078 10.8802 26.2242 9.96411 28.8247 9.96411C31.4252 9.96411 33.6421 10.8802 35.4756 12.7125C37.3079 14.546 38.224 16.763 38.224 19.3635V23.1232H40.1039C41.1378 23.1232 42.0232 23.491 42.7601 24.2267C43.4958 24.9636 43.8636 25.849 43.8636 26.8829V29.3268C43.237 29.1075 42.6104 28.9583 41.9838 28.8794C41.3571 28.8017 40.7305 28.7628 40.1039 28.7628C36.4381 28.7628 33.3288 30.0392 30.776 32.5921C28.2219 35.1462 26.9448 38.2562 26.9448 41.9219C26.9448 43.2691 27.1566 44.5769 27.5802 45.8452C28.0025 47.1147 28.574 48.3135 29.2946 49.4414ZM40.1039 41.9219C40.8872 41.9219 41.5526 41.6474 42.1003 41.0985C42.6492 40.5509 42.9237 39.8854 42.9237 39.1021C42.9237 38.3188 42.6492 37.6533 42.1003 37.1057C41.5526 36.5568 40.8872 36.2823 40.1039 36.2823C39.3206 36.2823 38.6551 36.5568 38.1075 37.1057C37.5585 37.6533 37.2841 38.3188 37.2841 39.1021C37.2841 39.8854 37.5585 40.5509 38.1075 41.0985C38.6551 41.6474 39.3206 41.9219 40.1039 41.9219ZM40.1039 47.5615C41.0438 47.5615 41.9211 47.3422 42.7357 46.9036C43.5503 46.4649 44.2239 45.854 44.7566 45.0707C44.0359 44.632 43.284 44.3112 42.5007 44.1082C41.7174 43.9039 40.9185 43.8018 40.1039 43.8018C39.2893 43.8018 38.4903 43.9039 37.7071 44.1082C36.9238 44.3112 36.1718 44.632 35.4512 45.0707C35.9838 45.854 36.6575 46.4649 37.4721 46.9036C38.2867 47.3422 39.164 47.5615 40.1039 47.5615Z" fill="#AEAEAE"/>
</svg>
