<svg width="17" height="17" viewBox="0 0 17 17" fill="none" xmlns="http://www.w3.org/2000/svg">
<g clip-path="url(#clip0_12_2958)">
<path d="M1.13554 8.21413L1.09699 8.31196L1.13554 8.40979C2.33485 11.4531 5.29546 13.6105 8.7636 13.6105C12.2317 13.6105 15.1923 11.4531 16.3917 8.40979L16.4302 8.31196L16.3917 8.21413C15.1923 5.17079 12.2317 3.01345 8.7636 3.01345C5.29546 3.01345 2.33485 5.17079 1.13554 8.21413ZM8.7636 6.03246C8.15904 6.03246 7.57924 6.27262 7.15175 6.70011C6.72426 7.1276 6.4841 7.7074 6.4841 8.31196C6.4841 8.91652 6.72426 9.49632 7.15175 9.92381C7.57924 10.3513 8.15904 10.5915 8.7636 10.5915C9.36816 10.5915 9.94796 10.3513 10.3754 9.92381C10.8029 9.49632 11.0431 8.91652 11.0431 8.31196C11.0431 7.7074 10.8029 7.1276 10.3754 6.70011C9.94796 6.27262 9.36816 6.03246 8.7636 6.03246ZM8.7636 11.3996C7.94471 11.3996 7.15936 11.0743 6.58031 10.4952C6.00127 9.9162 5.67597 9.13085 5.67597 8.31196C5.67597 7.49307 6.00127 6.70772 6.58031 6.12868C7.15936 5.54963 7.94471 5.22433 8.7636 5.22433C9.58249 5.22433 10.3678 5.54963 10.9469 6.12868C11.5259 6.70772 11.8512 7.49307 11.8512 8.31196C11.8512 9.13085 11.5259 9.9162 10.9469 10.4952C10.3678 11.0743 9.58249 11.3996 8.7636 11.3996Z" fill="white" stroke="black" stroke-width="0.533654"/>
</g>
<defs>
<clipPath id="clip0_12_2958">
<rect width="16.1014" height="16.1014" fill="white" transform="translate(0.712891 0.26123)"/>
</clipPath>
</defs>
</svg>
