<svg width="12" height="12" viewBox="0 0 12 12" fill="none" xmlns="http://www.w3.org/2000/svg">
<path d="M11.7563 10.4342C11.8295 10.5072 11.8876 10.5938 11.9272 10.6893C11.9668 10.7847 11.9872 10.887 11.9872 10.9904C11.9872 11.0937 11.9668 11.196 11.9272 11.2915C11.8876 11.3869 11.8295 11.4736 11.7563 11.5465C11.6082 11.6928 11.4083 11.7748 11.2002 11.7748C10.992 11.7748 10.7922 11.6928 10.644 11.5465L6.48923 7.39174L2.33445 11.5465C2.18628 11.6928 1.98648 11.7748 1.77829 11.7748C1.57011 11.7748 1.37031 11.6928 1.22214 11.5465C1.14895 11.4736 1.09087 11.3869 1.05124 11.2915C1.01161 11.196 0.991211 11.0937 0.991211 10.9904C0.991211 10.887 1.01161 10.7847 1.05124 10.6893C1.09087 10.5938 1.14895 10.5072 1.22214 10.4342L5.37692 6.27943L1.22214 2.12465C1.07464 1.97715 0.991777 1.7771 0.991777 1.5685C0.991777 1.46521 1.01212 1.36294 1.05165 1.26751C1.09117 1.17209 1.14911 1.08538 1.22214 1.01235C1.29518 0.939313 1.38188 0.881379 1.47731 0.841853C1.57273 0.802326 1.67501 0.781982 1.77829 0.781982C1.98689 0.781982 2.18695 0.864848 2.33445 1.01235L6.48923 5.16713L10.644 1.01235C10.7915 0.864848 10.9916 0.781982 11.2002 0.781982C11.4088 0.781982 11.6088 0.864848 11.7563 1.01235C11.9038 1.15985 11.9867 1.3599 11.9867 1.5685C11.9867 1.7771 11.9038 1.97715 11.7563 2.12465L7.60153 6.27943L11.7563 10.4342Z" fill="white"/>
</svg>
