<svg width="12" height="12" viewBox="0 0 12 12" fill="none" xmlns="http://www.w3.org/2000/svg">
<path d="M11.4735 10.3083C11.548 10.3825 11.6071 10.4707 11.6474 10.5678C11.6877 10.665 11.7085 10.7691 11.7085 10.8742C11.7085 10.9794 11.6877 11.0835 11.6474 11.1806C11.6071 11.2778 11.548 11.366 11.4735 11.4402C11.3227 11.589 11.1194 11.6725 10.9075 11.6725C10.6957 11.6725 10.4923 11.589 10.3416 11.4402L6.11352 7.21215L1.88548 11.4402C1.7347 11.589 1.53137 11.6725 1.31952 11.6725C1.10766 11.6725 0.904336 11.589 0.753559 11.4402C0.67907 11.366 0.619968 11.2778 0.579641 11.1806C0.539314 11.0835 0.518555 10.9794 0.518555 10.8742C0.518555 10.7691 0.539314 10.665 0.579641 10.5678C0.619968 10.4707 0.67907 10.3825 0.753559 10.3083L4.98161 6.08023L0.753559 1.85219C0.603457 1.70208 0.51913 1.4985 0.51913 1.28623C0.51913 1.18112 0.539833 1.07704 0.580056 0.979932C0.62028 0.882825 0.679236 0.794591 0.753559 0.720268C0.827881 0.645945 0.916115 0.586989 1.01322 0.546766C1.11033 0.506543 1.21441 0.48584 1.31952 0.48584C1.53179 0.48584 1.73538 0.570166 1.88548 0.720268L6.11352 4.94831L10.3416 0.720268C10.4917 0.570166 10.6953 0.48584 10.9075 0.48584C11.1198 0.48584 11.3234 0.570166 11.4735 0.720268C11.6236 0.87037 11.7079 1.07395 11.7079 1.28623C11.7079 1.4985 11.6236 1.70208 11.4735 1.85219L7.24544 6.08023L11.4735 10.3083Z" fill="white"/>
</svg>
