<svg width="12" height="13" viewBox="0 0 12 13" fill="none" xmlns="http://www.w3.org/2000/svg">
<path d="M11.2741 10.9178C11.3505 10.994 11.4111 11.0844 11.4525 11.184C11.4938 11.2836 11.5151 11.3904 11.5151 11.4983C11.5151 11.6061 11.4938 11.7129 11.4525 11.8125C11.4111 11.9121 11.3505 12.0026 11.2741 12.0787C11.1195 12.2313 10.9109 12.3169 10.6937 12.3169C10.4764 12.3169 10.2679 12.2313 10.1132 12.0787L5.77709 7.74253L1.44094 12.0787C1.2863 12.2313 1.07778 12.3169 0.860505 12.3169C0.643235 12.3169 0.434707 12.2313 0.280075 12.0787C0.203682 12.0026 0.143069 11.9121 0.101711 11.8125C0.0603523 11.7129 0.0390625 11.6061 0.0390625 11.4983C0.0390625 11.3904 0.0603523 11.2836 0.101711 11.184C0.143069 11.0844 0.203682 10.994 0.280075 10.9178L4.61623 6.58167L0.280075 2.24552C0.126136 2.09158 0.039653 1.88279 0.039653 1.66509C0.039653 1.55729 0.0608851 1.45055 0.102137 1.35096C0.143388 1.25137 0.203852 1.16088 0.280075 1.08466C0.356298 1.00844 0.446788 0.947974 0.546379 0.906722C0.645969 0.86547 0.752709 0.844238 0.860505 0.844238C1.07821 0.844238 1.287 0.930721 1.44094 1.08466L5.77709 5.42081L10.1132 1.08466C10.2672 0.930721 10.476 0.844238 10.6937 0.844238C10.9114 0.844238 11.1202 0.930721 11.2741 1.08466C11.428 1.2386 11.5145 1.44739 11.5145 1.66509C11.5145 1.88279 11.428 2.09158 11.2741 2.24552L6.93795 6.58167L11.2741 10.9178Z" fill="white"/>
</svg>
