<svg width="13" height="13" viewBox="0 0 13 13" fill="none" xmlns="http://www.w3.org/2000/svg">
<path d="M11.989 10.8822C12.0644 10.9573 12.1242 11.0466 12.165 11.1448C12.2058 11.243 12.2268 11.3484 12.2268 11.4548C12.2268 11.5611 12.2058 11.6665 12.165 11.7647C12.1242 11.8629 12.0644 11.9522 11.989 12.0273C11.8365 12.1778 11.6308 12.2622 11.4165 12.2622C11.2022 12.2622 10.9965 12.1778 10.844 12.0273L6.56699 7.75025L2.28998 12.0273C2.13746 12.1778 1.93177 12.2622 1.71747 12.2622C1.50316 12.2622 1.29748 12.1778 1.14495 12.0273C1.0696 11.9522 1.00981 11.8629 0.96902 11.7647C0.928226 11.6665 0.907227 11.5611 0.907227 11.4548C0.907227 11.3484 0.928226 11.243 0.96902 11.1448C1.00981 11.0466 1.0696 10.9573 1.14495 10.8822L5.42196 6.60523L1.14495 2.32821C0.993112 2.17637 0.907809 1.97044 0.907809 1.7557C0.907809 1.64938 0.928752 1.54409 0.969441 1.44586C1.01013 1.34763 1.06977 1.25837 1.14495 1.18319C1.22014 1.108 1.30939 1.04837 1.40762 1.00768C1.50586 0.966987 1.61114 0.946045 1.71747 0.946045C1.9322 0.946045 2.13814 1.03135 2.28998 1.18319L6.56699 5.4602L10.844 1.18319C10.9958 1.03135 11.2018 0.946045 11.4165 0.946045C11.6313 0.946045 11.8372 1.03135 11.989 1.18319C12.1409 1.33503 12.2262 1.54097 12.2262 1.7557C12.2262 1.97044 12.1409 2.17637 11.989 2.32821L7.71202 6.60523L11.989 10.8822Z" fill="white"/>
</svg>
