<svg width="17" height="17" viewBox="0 0 17 17" fill="none" xmlns="http://www.w3.org/2000/svg">
<path fill-rule="evenodd" clip-rule="evenodd" d="M7.86879 7.8268V2.35836C7.86879 1.98084 8.17483 1.6748 8.55234 1.6748C8.92986 1.6748 9.2359 1.98084 9.2359 2.35836V7.8268H14.7043C15.0818 7.8268 15.3879 8.13283 15.3879 8.51035C15.3879 8.88787 15.0818 9.1939 14.7043 9.1939H9.2359V14.6623C9.2359 15.0399 8.92986 15.3459 8.55234 15.3459C8.17483 15.3459 7.86879 15.0399 7.86879 14.6623V9.1939H2.40035C2.02283 9.1939 1.7168 8.88787 1.7168 8.51035C1.7168 8.13283 2.02283 7.8268 2.40035 7.8268H7.86879Z" fill="#313144"/>
</svg>
