<svg width="16" height="15" viewBox="0 0 16 15" fill="none" xmlns="http://www.w3.org/2000/svg">
<path fill-rule="evenodd" clip-rule="evenodd" d="M7.24566 6.83746V1.86562C7.24566 1.52239 7.5239 1.24414 7.86714 1.24414C8.21037 1.24414 8.48862 1.52239 8.48862 1.86562V6.83746H13.4605C13.8037 6.83746 14.0819 7.1157 14.0819 7.45893C14.0819 7.80217 13.8037 8.08041 13.4605 8.08041H8.48862V13.0522C8.48862 13.3955 8.21037 13.6737 7.86714 13.6737C7.5239 13.6737 7.24566 13.3955 7.24566 13.0522V8.08041H2.27382C1.93059 8.08041 1.65234 7.80217 1.65234 7.45893C1.65234 7.1157 1.93059 6.83746 2.27382 6.83746H7.24566Z" fill="#313144"/>
</svg>
