<svg width="16" height="15" viewBox="0 0 16 15" fill="none" xmlns="http://www.w3.org/2000/svg">
<path fill-rule="evenodd" clip-rule="evenodd" d="M7.11285 6.83746V1.86562C7.11285 1.52239 7.39109 1.24414 7.73433 1.24414C8.07756 1.24414 8.3558 1.52239 8.3558 1.86562V6.83746H13.3276C13.6709 6.83746 13.9491 7.1157 13.9491 7.45893C13.9491 7.80217 13.6709 8.08041 13.3276 8.08041H8.3558V13.0522C8.3558 13.3955 8.07756 13.6737 7.73433 13.6737C7.39109 13.6737 7.11285 13.3955 7.11285 13.0522V8.08041H2.14101C1.79778 8.08041 1.51953 7.80217 1.51953 7.45893C1.51953 7.1157 1.79778 6.83746 2.14101 6.83746H7.11285Z" fill="#313144"/>
</svg>
