<svg width="17" height="16" viewBox="0 0 17 16" fill="none" xmlns="http://www.w3.org/2000/svg">
<path fill-rule="evenodd" clip-rule="evenodd" d="M7.92871 7.55469V2.45573C7.92871 2.10372 8.21407 1.81836 8.56608 1.81836C8.91809 1.81836 9.20345 2.10372 9.20345 2.45573V7.55469H14.3024C14.6544 7.55469 14.9398 7.84005 14.9398 8.19206C14.9398 8.54407 14.6544 8.82943 14.3024 8.82943H9.20345V13.9284C9.20345 14.2804 8.91809 14.5658 8.56608 14.5658C8.21407 14.5658 7.92871 14.2804 7.92871 13.9284V8.82943H2.82975C2.47774 8.82943 2.19238 8.54407 2.19238 8.19206C2.19238 7.84005 2.47774 7.55469 2.82975 7.55469H7.92871Z" fill="#313144"/>
</svg>
