<svg width="17" height="16" viewBox="0 0 17 16" fill="none" xmlns="http://www.w3.org/2000/svg">
<path fill-rule="evenodd" clip-rule="evenodd" d="M7.92902 7.55469V2.45573C7.92902 2.10372 8.21438 1.81836 8.56639 1.81836C8.9184 1.81836 9.20376 2.10372 9.20376 2.45573V7.55469H14.3027C14.6547 7.55469 14.9401 7.84005 14.9401 8.19206C14.9401 8.54407 14.6547 8.82943 14.3027 8.82943H9.20376V13.9284C9.20376 14.2804 8.9184 14.5658 8.56639 14.5658C8.21438 14.5658 7.92902 14.2804 7.92902 13.9284V8.82943H2.83006C2.47805 8.82943 2.19269 8.54407 2.19269 8.19206C2.19269 7.84005 2.47805 7.55469 2.83006 7.55469H7.92902Z" fill="#313144"/>
</svg>
