<svg width="16" height="16" viewBox="0 0 16 16" fill="none" xmlns="http://www.w3.org/2000/svg">
<path fill-rule="evenodd" clip-rule="evenodd" d="M7.33843 7.43023V2.45839C7.33843 2.11516 7.61668 1.83691 7.95991 1.83691C8.30314 1.83691 8.58139 2.11516 8.58139 2.45839V7.43023H13.5532C13.8965 7.43023 14.1747 7.70847 14.1747 8.05171C14.1747 8.39494 13.8965 8.67319 13.5532 8.67319H8.58139V13.645C8.58139 13.9883 8.30314 14.2665 7.95991 14.2665C7.61668 14.2665 7.33843 13.9883 7.33843 13.645V8.67319H2.3666C2.02336 8.67319 1.74512 8.39494 1.74512 8.05171C1.74512 7.70847 2.02336 7.43023 2.3666 7.43023H7.33843Z" fill="#313144"/>
</svg>
