<svg width="15" height="15" viewBox="0 0 15 15" fill="none" xmlns="http://www.w3.org/2000/svg">
<path fill-rule="evenodd" clip-rule="evenodd" d="M6.73443 6.95074V2.06506C6.73443 1.72777 7.00785 1.45435 7.34514 1.45435C7.68242 1.45435 7.95585 1.72777 7.95585 2.06506V6.95074H12.8415C13.1788 6.95074 13.4522 7.22416 13.4522 7.56145C13.4522 7.89873 13.1788 8.17216 12.8415 8.17216H7.95585V13.0578C7.95585 13.3951 7.68242 13.6685 7.34514 13.6685C7.00785 13.6685 6.73443 13.3951 6.73443 13.0578V8.17216H1.84875C1.51146 8.17216 1.23804 7.89873 1.23804 7.56145C1.23804 7.22416 1.51146 6.95074 1.84875 6.95074H6.73443Z" fill="#313144"/>
</svg>
