<svg width="16" height="16" viewBox="0 0 16 16" fill="none" xmlns="http://www.w3.org/2000/svg">
<path fill-rule="evenodd" clip-rule="evenodd" d="M6.97808 7.43023V2.45839C6.97808 2.11516 7.25633 1.83691 7.59956 1.83691C7.94279 1.83691 8.22104 2.11516 8.22104 2.45839V7.43023H13.1929C13.5361 7.43023 13.8144 7.70847 13.8144 8.05171C13.8144 8.39494 13.5361 8.67319 13.1929 8.67319H8.22104V13.645C8.22104 13.9883 7.94279 14.2665 7.59956 14.2665C7.25633 14.2665 6.97808 13.9883 6.97808 13.645V8.67319H2.00625C1.66301 8.67319 1.38477 8.39494 1.38477 8.05171C1.38477 7.70847 1.66301 7.43023 2.00625 7.43023H6.97808Z" fill="#313144"/>
</svg>
