<svg width="15" height="15" viewBox="0 0 15 15" fill="none" xmlns="http://www.w3.org/2000/svg">
<path fill-rule="evenodd" clip-rule="evenodd" d="M7.23706 7.20312V2.4451C7.23706 2.11662 7.50334 1.85034 7.83181 1.85034C8.16029 1.85034 8.42657 2.11662 8.42657 2.4451V7.20312H13.1846C13.5131 7.20312 13.7793 7.4694 13.7793 7.79788C13.7793 8.12635 13.5131 8.39263 13.1846 8.39263H8.42657V13.1507C8.42657 13.4791 8.16029 13.7454 7.83181 13.7454C7.50334 13.7454 7.23706 13.4791 7.23706 13.1507V8.39263H2.47903C2.15056 8.39263 1.88428 8.12635 1.88428 7.79788C1.88428 7.4694 2.15056 7.20312 2.47903 7.20312H7.23706Z" fill="#313144"/>
</svg>
