<svg width="16" height="15" viewBox="0 0 16 15" fill="none" xmlns="http://www.w3.org/2000/svg">
<path fill-rule="evenodd" clip-rule="evenodd" d="M6.97808 6.83746V1.86562C6.97808 1.52239 7.25633 1.24414 7.59956 1.24414C7.94279 1.24414 8.22104 1.52239 8.22104 1.86562V6.83746H13.1929C13.5361 6.83746 13.8144 7.1157 13.8144 7.45893C13.8144 7.80217 13.5361 8.08041 13.1929 8.08041H8.22104V13.0522C8.22104 13.3955 7.94279 13.6737 7.59956 13.6737C7.25633 13.6737 6.97808 13.3955 6.97808 13.0522V8.08041H2.00625C1.66301 8.08041 1.38477 7.80217 1.38477 7.45893C1.38477 7.1157 1.66301 6.83746 2.00625 6.83746H6.97808Z" fill="#313144"/>
</svg>
