<svg width="17" height="17" viewBox="0 0 17 17" fill="none" xmlns="http://www.w3.org/2000/svg">
<path fill-rule="evenodd" clip-rule="evenodd" d="M7.8683 7.8268V2.35836C7.8683 1.98084 8.17434 1.6748 8.55185 1.6748C8.92937 1.6748 9.23541 1.98084 9.23541 2.35836V7.8268H14.7038C15.0814 7.8268 15.3874 8.13283 15.3874 8.51035C15.3874 8.88787 15.0814 9.1939 14.7038 9.1939H9.23541V14.6623C9.23541 15.0399 8.92937 15.3459 8.55185 15.3459C8.17434 15.3459 7.8683 15.0399 7.8683 14.6623V9.1939H2.39986C2.02235 9.1939 1.71631 8.88787 1.71631 8.51035C1.71631 8.13283 2.02235 7.8268 2.39986 7.8268H7.8683Z" fill="#313144"/>
</svg>
