<svg width="17" height="16" viewBox="0 0 17 16" fill="none" xmlns="http://www.w3.org/2000/svg">
<path fill-rule="evenodd" clip-rule="evenodd" d="M7.82752 7.55469V2.45573C7.82752 2.10372 8.11288 1.81836 8.46489 1.81836C8.81689 1.81836 9.10226 2.10372 9.10226 2.45573V7.55469H14.2012C14.5532 7.55469 14.8386 7.84005 14.8386 8.19206C14.8386 8.54407 14.5532 8.82943 14.2012 8.82943H9.10226V13.9284C9.10226 14.2804 8.81689 14.5658 8.46489 14.5658C8.11288 14.5658 7.82752 14.2804 7.82752 13.9284V8.82943H2.72856C2.37655 8.82943 2.09119 8.54407 2.09119 8.19206C2.09119 7.84005 2.37655 7.55469 2.72856 7.55469H7.82752Z" fill="#313144"/>
</svg>
