<svg width="17" height="16" viewBox="0 0 17 16" fill="none" xmlns="http://www.w3.org/2000/svg">
<path fill-rule="evenodd" clip-rule="evenodd" d="M7.72559 7.55469V2.45573C7.72559 2.10372 8.01095 1.81836 8.36296 1.81836C8.71497 1.81836 9.00033 2.10372 9.00033 2.45573V7.55469H14.0993C14.4513 7.55469 14.7367 7.84005 14.7367 8.19206C14.7367 8.54407 14.4513 8.82943 14.0993 8.82943H9.00033V13.9284C9.00033 14.2804 8.71497 14.5658 8.36296 14.5658C8.01095 14.5658 7.72559 14.2804 7.72559 13.9284V8.82943H2.62663C2.27462 8.82943 1.98926 8.54407 1.98926 8.19206C1.98926 7.84005 2.27462 7.55469 2.62663 7.55469H7.72559Z" fill="#313144"/>
</svg>
