<svg width="14" height="15" viewBox="0 0 14 15" fill="none" xmlns="http://www.w3.org/2000/svg">
<path fill-rule="evenodd" clip-rule="evenodd" d="M6.38249 7.18156V2.58897C6.38249 2.27191 6.63951 2.01489 6.95656 2.01489C7.27361 2.01489 7.53064 2.27191 7.53064 2.58897V7.18156H12.1232C12.4403 7.18156 12.6973 7.43858 12.6973 7.75563C12.6973 8.07269 12.4403 8.32971 12.1232 8.32971H7.53064V12.9223C7.53064 13.2394 7.27361 13.4964 6.95656 13.4964C6.63951 13.4964 6.38249 13.2394 6.38249 12.9223V8.32971H1.78989C1.47284 8.32971 1.21582 8.07269 1.21582 7.75563C1.21582 7.43858 1.47284 7.18156 1.78989 7.18156H6.38249Z" fill="#313144"/>
</svg>
