<svg width="15" height="15" viewBox="0 0 15 15" fill="none" xmlns="http://www.w3.org/2000/svg">
<path fill-rule="evenodd" clip-rule="evenodd" d="M6.73369 6.95074V2.06506C6.73369 1.72777 7.00712 1.45435 7.3444 1.45435C7.68169 1.45435 7.95511 1.72777 7.95511 2.06506V6.95074H12.8408C13.1781 6.95074 13.4515 7.22416 13.4515 7.56145C13.4515 7.89873 13.1781 8.17216 12.8408 8.17216H7.95511V13.0578C7.95511 13.3951 7.68169 13.6685 7.3444 13.6685C7.00712 13.6685 6.73369 13.3951 6.73369 13.0578V8.17216H1.84801C1.51073 8.17216 1.2373 7.89873 1.2373 7.56145C1.2373 7.22416 1.51073 6.95074 1.84801 6.95074H6.73369Z" fill="#313144"/>
</svg>
