<svg width="16" height="16" viewBox="0 0 16 16" fill="none" xmlns="http://www.w3.org/2000/svg">
<path fill-rule="evenodd" clip-rule="evenodd" d="M7.56206 7.43023V2.45839C7.56206 2.11516 7.84031 1.83691 8.18354 1.83691C8.52678 1.83691 8.80502 2.11516 8.80502 2.45839V7.43023H13.7769C14.1201 7.43023 14.3983 7.70847 14.3983 8.05171C14.3983 8.39494 14.1201 8.67319 13.7769 8.67319H8.80502V13.645C8.80502 13.9883 8.52678 14.2665 8.18354 14.2665C7.84031 14.2665 7.56206 13.9883 7.56206 13.645V8.67319H2.59023C2.247 8.67319 1.96875 8.39494 1.96875 8.05171C1.96875 7.70847 2.247 7.43023 2.59023 7.43023H7.56206Z" fill="#313144"/>
</svg>
