<svg width="16" height="16" viewBox="0 0 16 16" fill="none" xmlns="http://www.w3.org/2000/svg">
<path fill-rule="evenodd" clip-rule="evenodd" d="M7.32574 7.43023V2.45839C7.32574 2.11516 7.60398 1.83691 7.94722 1.83691C8.29045 1.83691 8.5687 2.11516 8.5687 2.45839V7.43023H13.5405C13.8838 7.43023 14.162 7.70847 14.162 8.05171C14.162 8.39494 13.8838 8.67319 13.5405 8.67319H8.5687V13.645C8.5687 13.9883 8.29045 14.2665 7.94722 14.2665C7.60398 14.2665 7.32574 13.9883 7.32574 13.645V8.67319H2.3539C2.01067 8.67319 1.73242 8.39494 1.73242 8.05171C1.73242 7.70847 2.01067 7.43023 2.3539 7.43023H7.32574Z" fill="#313144"/>
</svg>
