<svg width="16" height="15" viewBox="0 0 16 15" fill="none" xmlns="http://www.w3.org/2000/svg">
<path fill-rule="evenodd" clip-rule="evenodd" d="M7.09038 6.83746V1.86562C7.09038 1.52239 7.36863 1.24414 7.71186 1.24414C8.0551 1.24414 8.33334 1.52239 8.33334 1.86562V6.83746H13.3052C13.6484 6.83746 13.9267 7.1157 13.9267 7.45893C13.9267 7.80217 13.6484 8.08041 13.3052 8.08041H8.33334V13.0522C8.33334 13.3955 8.0551 13.6737 7.71186 13.6737C7.36863 13.6737 7.09038 13.3955 7.09038 13.0522V8.08041H2.11855C1.77532 8.08041 1.49707 7.80217 1.49707 7.45893C1.49707 7.1157 1.77532 6.83746 2.11855 6.83746H7.09038Z" fill="#313144"/>
</svg>
