<svg width="17" height="16" viewBox="0 0 17 16" fill="none" xmlns="http://www.w3.org/2000/svg">
<path fill-rule="evenodd" clip-rule="evenodd" d="M7.72595 7.55469V2.45573C7.72595 2.10372 8.01131 1.81836 8.36332 1.81836C8.71533 1.81836 9.00069 2.10372 9.00069 2.45573V7.55469H14.0997C14.4517 7.55469 14.737 7.84005 14.737 8.19206C14.737 8.54407 14.4517 8.82943 14.0997 8.82943H9.00069V13.9284C9.00069 14.2804 8.71533 14.5658 8.36332 14.5658C8.01131 14.5658 7.72595 14.2804 7.72595 13.9284V8.82943H2.62699C2.27498 8.82943 1.98962 8.54407 1.98962 8.19206C1.98962 7.84005 2.27498 7.55469 2.62699 7.55469H7.72595Z" fill="#313144"/>
</svg>
