<svg width="17" height="17" viewBox="0 0 17 17" fill="none" xmlns="http://www.w3.org/2000/svg">
<path fill-rule="evenodd" clip-rule="evenodd" d="M8.01563 7.99683V2.87183C8.01563 2.51802 8.30244 2.2312 8.65625 2.2312C9.01006 2.2312 9.29688 2.51802 9.29688 2.87183V7.99683H14.4219C14.7757 7.99683 15.0625 8.28364 15.0625 8.63745C15.0625 8.99126 14.7757 9.27808 14.4219 9.27808H9.29688V14.4031C9.29688 14.7569 9.01006 15.0437 8.65625 15.0437C8.30244 15.0437 8.01563 14.7569 8.01563 14.4031V9.27808H2.89063C2.53682 9.27808 2.25 8.99126 2.25 8.63745C2.25 8.28364 2.53682 7.99683 2.89063 7.99683H8.01563Z" fill="#313144"/>
</svg>
