<svg width="15" height="15" viewBox="0 0 15 15" fill="none" xmlns="http://www.w3.org/2000/svg">
<path fill-rule="evenodd" clip-rule="evenodd" d="M6.73418 6.95074V2.06506C6.73418 1.72777 7.00761 1.45435 7.34489 1.45435C7.68218 1.45435 7.9556 1.72777 7.9556 2.06506V6.95074H12.8413C13.1786 6.95074 13.452 7.22416 13.452 7.56145C13.452 7.89873 13.1786 8.17216 12.8413 8.17216H7.9556V13.0578C7.9556 13.3951 7.68218 13.6685 7.34489 13.6685C7.00761 13.6685 6.73418 13.3951 6.73418 13.0578V8.17216H1.8485C1.51122 8.17216 1.23779 7.89873 1.23779 7.56145C1.23779 7.22416 1.51122 6.95074 1.8485 6.95074H6.73418Z" fill="#313144"/>
</svg>
