<svg width="14" height="15" viewBox="0 0 14 15" fill="none" xmlns="http://www.w3.org/2000/svg">
<path fill-rule="evenodd" clip-rule="evenodd" d="M6.38102 7.18156V2.58897C6.38102 2.27191 6.63804 2.01489 6.9551 2.01489C7.27215 2.01489 7.52917 2.27191 7.52917 2.58897V7.18156H12.1218C12.4388 7.18156 12.6958 7.43858 12.6958 7.75563C12.6958 8.07269 12.4388 8.32971 12.1218 8.32971H7.52917V12.9223C7.52917 13.2394 7.27215 13.4964 6.9551 13.4964C6.63804 13.4964 6.38102 13.2394 6.38102 12.9223V8.32971H1.78843C1.47138 8.32971 1.21436 8.07269 1.21436 7.75563C1.21436 7.43858 1.47138 7.18156 1.78843 7.18156H6.38102Z" fill="#313144"/>
</svg>
