<svg width="16" height="15" viewBox="0 0 16 15" fill="none" xmlns="http://www.w3.org/2000/svg">
<path fill-rule="evenodd" clip-rule="evenodd" d="M7.37964 7.20312V2.4451C7.37964 2.11662 7.64592 1.85034 7.97439 1.85034C8.30286 1.85034 8.56914 2.11662 8.56914 2.4451V7.20312H13.3272C13.6556 7.20312 13.9219 7.4694 13.9219 7.79788C13.9219 8.12635 13.6556 8.39263 13.3272 8.39263H8.56914V13.1507C8.56914 13.4791 8.30286 13.7454 7.97439 13.7454C7.64592 13.7454 7.37964 13.4791 7.37964 13.1507V8.39263H2.62161C2.29314 8.39263 2.02686 8.12635 2.02686 7.79788C2.02686 7.4694 2.29314 7.20312 2.62161 7.20312H7.37964Z" fill="#313144"/>
</svg>
