<svg width="17" height="16" viewBox="0 0 17 16" fill="none" xmlns="http://www.w3.org/2000/svg">
<path fill-rule="evenodd" clip-rule="evenodd" d="M7.72656 7.55469V2.45573C7.72656 2.10372 8.01192 1.81836 8.36393 1.81836C8.71594 1.81836 9.0013 2.10372 9.0013 2.45573V7.55469H14.1003C14.4523 7.55469 14.7376 7.84005 14.7376 8.19206C14.7376 8.54407 14.4523 8.82943 14.1003 8.82943H9.0013V13.9284C9.0013 14.2804 8.71594 14.5658 8.36393 14.5658C8.01192 14.5658 7.72656 14.2804 7.72656 13.9284V8.82943H2.6276C2.27559 8.82943 1.99023 8.54407 1.99023 8.19206C1.99023 7.84005 2.27559 7.55469 2.6276 7.55469H7.72656Z" fill="#313144"/>
</svg>
