<svg width="16" height="16" viewBox="0 0 16 16" fill="none" xmlns="http://www.w3.org/2000/svg">
<path fill-rule="evenodd" clip-rule="evenodd" d="M7.09038 7.43023V2.45839C7.09038 2.11516 7.36863 1.83691 7.71186 1.83691C8.0551 1.83691 8.33334 2.11516 8.33334 2.45839V7.43023H13.3052C13.6484 7.43023 13.9267 7.70847 13.9267 8.05171C13.9267 8.39494 13.6484 8.67319 13.3052 8.67319H8.33334V13.645C8.33334 13.9883 8.0551 14.2665 7.71186 14.2665C7.36863 14.2665 7.09038 13.9883 7.09038 13.645V8.67319H2.11855C1.77532 8.67319 1.49707 8.39494 1.49707 8.05171C1.49707 7.70847 1.77532 7.43023 2.11855 7.43023H7.09038Z" fill="#313144"/>
</svg>
