<svg width="17" height="16" viewBox="0 0 17 16" fill="none" xmlns="http://www.w3.org/2000/svg">
<path fill-rule="evenodd" clip-rule="evenodd" d="M7.82813 7.55469V2.45573C7.82813 2.10372 8.11349 1.81836 8.4655 1.81836C8.81751 1.81836 9.10287 2.10372 9.10287 2.45573V7.55469H14.2018C14.5538 7.55469 14.8392 7.84005 14.8392 8.19206C14.8392 8.54407 14.5538 8.82943 14.2018 8.82943H9.10287V13.9284C9.10287 14.2804 8.81751 14.5658 8.4655 14.5658C8.11349 14.5658 7.82813 14.2804 7.82813 13.9284V8.82943H2.72917C2.37716 8.82943 2.0918 8.54407 2.0918 8.19206C2.0918 7.84005 2.37716 7.55469 2.72917 7.55469H7.82813Z" fill="#313144"/>
</svg>
