<svg width="17" height="16" viewBox="0 0 17 16" fill="none" xmlns="http://www.w3.org/2000/svg">
<path fill-rule="evenodd" clip-rule="evenodd" d="M7.92969 7.55469V2.45573C7.92969 2.10372 8.21505 1.81836 8.56706 1.81836C8.91907 1.81836 9.20443 2.10372 9.20443 2.45573V7.55469H14.3034C14.6554 7.55469 14.9408 7.84005 14.9408 8.19206C14.9408 8.54407 14.6554 8.82943 14.3034 8.82943H9.20443V13.9284C9.20443 14.2804 8.91907 14.5658 8.56706 14.5658C8.21505 14.5658 7.92969 14.2804 7.92969 13.9284V8.82943H2.83073C2.47872 8.82943 2.19336 8.54407 2.19336 8.19206C2.19336 7.84005 2.47872 7.55469 2.83073 7.55469H7.92969Z" fill="#313144"/>
</svg>
