<svg width="15" height="15" viewBox="0 0 15 15" fill="none" xmlns="http://www.w3.org/2000/svg">
<path fill-rule="evenodd" clip-rule="evenodd" d="M6.73443 7.05913V2.17345C6.73443 1.83617 7.00785 1.56274 7.34514 1.56274C7.68242 1.56274 7.95585 1.83617 7.95585 2.17345V7.05913H12.8415C13.1788 7.05913 13.4522 7.33256 13.4522 7.66984C13.4522 8.00713 13.1788 8.28055 12.8415 8.28055H7.95585V13.1662C7.95585 13.5035 7.68242 13.7769 7.34514 13.7769C7.00785 13.7769 6.73443 13.5035 6.73443 13.1662V8.28055H1.84875C1.51146 8.28055 1.23804 8.00713 1.23804 7.66984C1.23804 7.33256 1.51146 7.05913 1.84875 7.05913H6.73443Z" fill="#313144"/>
</svg>
