<svg width="16" height="16" viewBox="0 0 16 16" fill="none" xmlns="http://www.w3.org/2000/svg">
<path fill-rule="evenodd" clip-rule="evenodd" d="M7.11285 7.43023V2.45839C7.11285 2.11516 7.39109 1.83691 7.73433 1.83691C8.07756 1.83691 8.3558 2.11516 8.3558 2.45839V7.43023H13.3276C13.6709 7.43023 13.9491 7.70847 13.9491 8.05171C13.9491 8.39494 13.6709 8.67319 13.3276 8.67319H8.3558V13.645C8.3558 13.9883 8.07756 14.2665 7.73433 14.2665C7.39109 14.2665 7.11285 13.9883 7.11285 13.645V8.67319H2.14101C1.79778 8.67319 1.51953 8.39494 1.51953 8.05171C1.51953 7.70847 1.79778 7.43023 2.14101 7.43023H7.11285Z" fill="#313144"/>
</svg>
