<svg width="15" height="15" viewBox="0 0 15 15" fill="none" xmlns="http://www.w3.org/2000/svg">
<path fill-rule="evenodd" clip-rule="evenodd" d="M7.23364 7.20312V2.4451C7.23364 2.11662 7.49992 1.85034 7.82839 1.85034C8.15687 1.85034 8.42315 2.11662 8.42315 2.4451V7.20312H13.1812C13.5096 7.20312 13.7759 7.4694 13.7759 7.79788C13.7759 8.12635 13.5096 8.39263 13.1812 8.39263H8.42315V13.1507C8.42315 13.4791 8.15687 13.7454 7.82839 13.7454C7.49992 13.7454 7.23364 13.4791 7.23364 13.1507V8.39263H2.47561C2.14714 8.39263 1.88086 8.12635 1.88086 7.79788C1.88086 7.4694 2.14714 7.20312 2.47561 7.20312H7.23364Z" fill="#313144"/>
</svg>
