<svg width="15" height="15" viewBox="0 0 15 15" fill="none" xmlns="http://www.w3.org/2000/svg">
<path fill-rule="evenodd" clip-rule="evenodd" d="M6.84429 6.83746V1.86562C6.84429 1.52239 7.12254 1.24414 7.46577 1.24414C7.809 1.24414 8.08725 1.52239 8.08725 1.86562V6.83746H13.0591C13.4023 6.83746 13.6806 7.1157 13.6806 7.45893C13.6806 7.80217 13.4023 8.08041 13.0591 8.08041H8.08725V13.0522C8.08725 13.3955 7.809 13.6737 7.46577 13.6737C7.12254 13.6737 6.84429 13.3955 6.84429 13.0522V8.08041H1.87246C1.52922 8.08041 1.25098 7.80217 1.25098 7.45893C1.25098 7.1157 1.52922 6.83746 1.87246 6.83746H6.84429Z" fill="#313144"/>
</svg>
