<svg width="17" height="16" viewBox="0 0 17 16" fill="none" xmlns="http://www.w3.org/2000/svg">
<path fill-rule="evenodd" clip-rule="evenodd" d="M7.82764 7.55469V2.45573C7.82764 2.10372 8.113 1.81836 8.46501 1.81836C8.81702 1.81836 9.10238 2.10372 9.10238 2.45573V7.55469H14.2013C14.5533 7.55469 14.8387 7.84005 14.8387 8.19206C14.8387 8.54407 14.5533 8.82943 14.2013 8.82943H9.10238V13.9284C9.10238 14.2804 8.81702 14.5658 8.46501 14.5658C8.113 14.5658 7.82764 14.2804 7.82764 13.9284V8.82943H2.72868C2.37667 8.82943 2.09131 8.54407 2.09131 8.19206C2.09131 7.84005 2.37667 7.55469 2.72868 7.55469H7.82764Z" fill="#313144"/>
</svg>
