<svg width="17" height="17" viewBox="0 0 17 17" fill="none" xmlns="http://www.w3.org/2000/svg">
<path d="M6.63579 11.6975C6.51466 11.5764 6.4541 11.4222 6.4541 11.235C6.4541 11.0478 6.51466 10.8936 6.63579 10.7725L9.2125 8.19582L6.63579 5.61911C6.51466 5.49799 6.4541 5.34382 6.4541 5.15663C6.4541 4.96943 6.51466 4.81527 6.63579 4.69414C6.75692 4.57301 6.91108 4.51245 7.09828 4.51245C7.28547 4.51245 7.43964 4.57301 7.56076 4.69414L10.6 7.73333C10.666 7.7994 10.7129 7.87098 10.7407 7.94806C10.768 8.02514 10.7816 8.10772 10.7816 8.19582C10.7816 8.28391 10.768 8.3665 10.7407 8.44358C10.7129 8.52066 10.666 8.59223 10.6 8.6583L7.56076 11.6975C7.43964 11.8186 7.28547 11.8792 7.09828 11.8792C6.91108 11.8792 6.75692 11.8186 6.63579 11.6975Z" fill="white"/>
</svg>
