<svg width="16" height="17" viewBox="0 0 16 17" fill="none" xmlns="http://www.w3.org/2000/svg">
<g clip-path="url(#clip0_66_18118)">
<path d="M4.39295 14.8191C4.04265 14.8191 3.74288 14.6945 3.49364 14.4453C3.24397 14.1956 3.11914 13.8956 3.11914 13.5453V3.35486C3.11914 3.00457 3.24397 2.70458 3.49364 2.45492C3.74288 2.20568 4.04265 2.08105 4.39295 2.08105H9.48819L13.3096 5.90248V7.87689L8.21438 12.9562V14.8191H4.39295ZM9.48819 14.8191V13.4657L12.7682 10.1697L14.1376 11.5072L10.8416 14.8191H9.48819ZM14.5993 11.0614L13.2459 9.70799L13.6918 9.26216C13.8191 9.13477 13.9731 9.07108 14.1535 9.07108C14.334 9.07108 14.4826 9.13477 14.5993 9.26216L15.0452 9.72391C15.1619 9.85129 15.2203 10.0025 15.2203 10.1774C15.2203 10.3527 15.1619 10.4988 15.0452 10.6156L14.5993 11.0614ZM8.85128 6.53939H12.0358L8.85128 3.35486V6.53939Z" fill="white"/>
</g>
<defs>
<clipPath id="clip0_66_18118">
<rect width="15.2857" height="15.2857" fill="white" transform="translate(0.571289 0.807129)"/>
</clipPath>
</defs>
</svg>
