<svg width="21" height="21" viewBox="0 0 21 21" fill="none" xmlns="http://www.w3.org/2000/svg">
<path d="M9.89269 14.7161H11.5103V11.4808H14.7456V9.86315H11.5103V6.62786H9.89269V9.86315H6.6574V11.4808H9.89269V14.7161ZM10.7015 18.7602C9.58264 18.7602 8.53117 18.5478 7.5471 18.1229C6.56304 17.6985 5.70703 17.1223 4.97909 16.3944C4.25115 15.6665 3.675 14.8105 3.25063 13.8264C2.82573 12.8423 2.61328 11.7908 2.61328 10.672C2.61328 9.5531 2.82573 8.50163 3.25063 7.51756C3.675 6.5335 4.25115 5.67749 4.97909 4.94955C5.70703 4.22161 6.56304 3.64519 7.5471 3.22028C8.53117 2.79592 9.58264 2.58374 10.7015 2.58374C11.8204 2.58374 12.8719 2.79592 13.8559 3.22028C14.84 3.64519 15.696 4.22161 16.4239 4.94955C17.1519 5.67749 17.728 6.5335 18.1524 7.51756C18.5773 8.50163 18.7898 9.5531 18.7898 10.672C18.7898 11.7908 18.5773 12.8423 18.1524 13.8264C17.728 14.8105 17.1519 15.6665 16.4239 16.3944C15.696 17.1223 14.84 17.6985 13.8559 18.1229C12.8719 18.5478 11.8204 18.7602 10.7015 18.7602Z" fill="#F3EFEE"/>
</svg>
