<svg width="16" height="16" viewBox="0 0 16 16" fill="none" xmlns="http://www.w3.org/2000/svg">
<g clip-path="url(#clip0_66_18109)">
<path d="M4.39295 14.076C4.04265 14.076 3.74288 13.9514 3.49364 13.7021C3.24397 13.4525 3.11914 13.1525 3.11914 12.8022V2.6117C3.11914 2.2614 3.24397 1.96142 3.49364 1.71175C3.74288 1.46251 4.04265 1.33789 4.39295 1.33789H9.48819L13.3096 5.15932V7.13372L8.21438 12.213V14.076H4.39295ZM9.48819 14.076V12.7226L12.7682 9.42658L14.1376 10.7641L10.8416 14.076H9.48819ZM14.5993 10.3182L13.2459 8.96482L13.6918 8.51899C13.8191 8.39161 13.9731 8.32792 14.1535 8.32792C14.334 8.32792 14.4826 8.39161 14.5993 8.51899L15.0452 8.98075C15.1619 9.10813 15.2203 9.25929 15.2203 9.43422C15.2203 9.60958 15.1619 9.75565 15.0452 9.87241L14.5993 10.3182ZM8.85128 5.79622H12.0358L8.85128 2.6117V5.79622Z" fill="white"/>
</g>
<defs>
<clipPath id="clip0_66_18109">
<rect width="15.2857" height="15.2857" fill="white" transform="translate(0.571289 0.064209)"/>
</clipPath>
</defs>
</svg>
