<svg width="18" height="19" viewBox="0 0 18 19" fill="none" xmlns="http://www.w3.org/2000/svg">
<path d="M8.54834 13.0801H9.97575V10.2253H12.8306V8.79785H9.97575V5.94303H8.54834V8.79785H5.69352V10.2253H8.54834V13.0801ZM9.26204 16.6486C8.27475 16.6486 7.34694 16.4611 6.4786 16.0862C5.61026 15.7117 4.85492 15.2033 4.21258 14.561C3.57025 13.9187 3.06186 13.1633 2.6874 12.295C2.31247 11.4267 2.125 10.4988 2.125 9.51155C2.125 8.52426 2.31247 7.59645 2.6874 6.72811C3.06186 5.85977 3.57025 5.10443 4.21258 4.4621C4.85492 3.81976 5.61026 3.31113 6.4786 2.9362C7.34694 2.56174 8.27475 2.37451 9.26204 2.37451C10.2493 2.37451 11.1771 2.56174 12.0455 2.9362C12.9138 3.31113 13.6692 3.81976 14.3115 4.4621C14.9538 5.10443 15.4622 5.85977 15.8367 6.72811C16.2116 7.59645 16.3991 8.52426 16.3991 9.51155C16.3991 10.4988 16.2116 11.4267 15.8367 12.295C15.4622 13.1633 14.9538 13.9187 14.3115 14.561C13.6692 15.2033 12.9138 15.7117 12.0455 16.0862C11.1771 16.4611 10.2493 16.6486 9.26204 16.6486Z" fill="#F3EFEE"/>
</svg>
