<svg width="17" height="17" viewBox="0 0 17 17" fill="none" xmlns="http://www.w3.org/2000/svg">
<path d="M6.35161 11.5776C6.23049 11.4565 6.16992 11.3023 6.16992 11.1151C6.16992 10.9279 6.23049 10.7738 6.35161 10.6526L8.92832 8.07594L6.35161 5.49924C6.23049 5.37811 6.16992 5.22395 6.16992 5.03675C6.16992 4.84956 6.23049 4.6954 6.35161 4.57427C6.47274 4.45314 6.6269 4.39258 6.8141 4.39258C7.00129 4.39258 7.15546 4.45314 7.27658 4.57427L10.3158 7.61346C10.3818 7.67953 10.4288 7.7511 10.4565 7.82818C10.4838 7.90526 10.4975 7.98785 10.4975 8.07594C10.4975 8.16404 10.4838 8.24662 10.4565 8.3237C10.4288 8.40078 10.3818 8.47236 10.3158 8.53843L7.27658 11.5776C7.15546 11.6987 7.00129 11.7593 6.8141 11.7593C6.6269 11.7593 6.47274 11.6987 6.35161 11.5776Z" fill="white"/>
</svg>
