<svg width="18" height="18" viewBox="0 0 18 18" fill="none" xmlns="http://www.w3.org/2000/svg">
<path d="M8.12204 12.4681H9.58774V9.53671H12.5191V8.07101H9.58774V5.1396H8.12204V8.07101H5.19063V9.53671H8.12204V12.4681ZM8.85489 16.1324C7.84111 16.1324 6.8884 15.9399 5.99676 15.5549C5.10513 15.1704 4.32953 14.6484 3.66996 13.9888C3.01039 13.3292 2.48836 12.5536 2.10385 11.662C1.71886 10.7703 1.52637 9.81764 1.52637 8.80386C1.52637 7.79008 1.71886 6.83738 2.10385 5.94574C2.48836 5.0541 3.01039 4.2785 3.66996 3.61893C4.32953 2.95937 5.10513 2.43709 5.99676 2.0521C6.8884 1.66759 7.84111 1.47534 8.85489 1.47534C9.86867 1.47534 10.8214 1.66759 11.713 2.0521C12.6046 2.43709 13.3802 2.95937 14.0398 3.61893C14.6994 4.2785 15.2214 5.0541 15.6059 5.94574C15.9909 6.83738 16.1834 7.79008 16.1834 8.80386C16.1834 9.81764 15.9909 10.7703 15.6059 11.662C15.2214 12.5536 14.6994 13.3292 14.0398 13.9888C13.3802 14.6484 12.6046 15.1704 11.713 15.5549C10.8214 15.9399 9.86867 16.1324 8.85489 16.1324Z" fill="#F3EFEE"/>
</svg>
