<svg width="17" height="17" viewBox="0 0 17 17" fill="none" xmlns="http://www.w3.org/2000/svg">
<g clip-path="url(#clip0_19_11803)">
<path d="M1.26398 8.45074L1.22627 8.54644L1.26398 8.64215C2.43725 11.6194 5.33356 13.7299 8.72639 13.7299C12.1192 13.7299 15.0155 11.6194 16.1888 8.64215L16.2265 8.54644L16.1888 8.45074C15.0155 5.47349 12.1192 3.36299 8.72639 3.36299C5.33356 3.36299 2.43725 5.47349 1.26398 8.45074ZM8.72639 6.31644C8.13495 6.31644 7.56774 6.55139 7.14954 6.9696C6.73133 7.3878 6.49639 7.95501 6.49639 8.54644C6.49639 9.13788 6.73133 9.70509 7.14954 10.1233C7.56774 10.5415 8.13495 10.7764 8.72639 10.7764C9.31782 10.7764 9.88503 10.5415 10.3032 10.1233C10.7214 9.70509 10.9564 9.13788 10.9564 8.54644C10.9564 7.95501 10.7214 7.3878 10.3032 6.9696C9.88503 6.55139 9.31782 6.31644 8.72639 6.31644ZM8.72639 11.567C7.92528 11.567 7.15698 11.2488 6.59051 10.6823C6.02404 10.1158 5.70581 9.34755 5.70581 8.54644C5.70581 7.74534 6.02404 6.97704 6.59051 6.41057C7.15698 5.8441 7.92528 5.52586 8.72639 5.52586C9.5275 5.52586 10.2958 5.8441 10.8623 6.41057C11.4287 6.97704 11.747 7.74534 11.747 8.54644C11.747 9.34755 11.4287 10.1158 10.8623 10.6823C10.2958 11.2488 9.5275 11.567 8.72639 11.567Z" fill="white" stroke="black" stroke-width="0.522065"/>
</g>
<defs>
<clipPath id="clip0_19_11803">
<rect width="15.7517" height="15.7517" fill="white" transform="translate(0.850586 0.67041)"/>
</clipPath>
</defs>
</svg>
