<svg width="17" height="17" viewBox="0 0 17 17" fill="none" xmlns="http://www.w3.org/2000/svg">
<g clip-path="url(#clip0_12_2963)">
<path d="M1.13554 8.15359L1.09699 8.25141L1.13554 8.34924C2.33485 11.3926 5.29546 13.5499 8.7636 13.5499C12.2317 13.5499 15.1923 11.3926 16.3917 8.34924L16.4302 8.25141L16.3917 8.15359C15.1923 5.11025 12.2317 2.9529 8.7636 2.9529C5.29546 2.9529 2.33485 5.11025 1.13554 8.15359ZM8.7636 5.97191C8.15904 5.97191 7.57924 6.21207 7.15175 6.63956C6.72426 7.06705 6.4841 7.64685 6.4841 8.25141C6.4841 8.85598 6.72426 9.43578 7.15175 9.86327C7.57924 10.2908 8.15904 10.5309 8.7636 10.5309C9.36816 10.5309 9.94796 10.2908 10.3754 9.86327C10.8029 9.43578 11.0431 8.85597 11.0431 8.25141C11.0431 7.64685 10.8029 7.06705 10.3754 6.63956C9.94796 6.21207 9.36816 5.97191 8.7636 5.97191ZM8.7636 11.339C7.94471 11.339 7.15936 11.0137 6.58031 10.4347C6.00127 9.85566 5.67597 9.0703 5.67597 8.25141C5.67597 7.43252 6.00127 6.64717 6.58031 6.06813C7.15936 5.48909 7.94471 5.16378 8.7636 5.16378C9.58249 5.16378 10.3678 5.48909 10.9469 6.06813C11.5259 6.64717 11.8512 7.43252 11.8512 8.25141C11.8512 9.0703 11.5259 9.85566 10.9469 10.4347C10.3678 11.0137 9.58249 11.339 8.7636 11.339Z" fill="white" stroke="black" stroke-width="0.533654"/>
</g>
<defs>
<clipPath id="clip0_12_2963">
<rect width="16.1014" height="16.1014" fill="white" transform="translate(0.712891 0.200684)"/>
</clipPath>
</defs>
</svg>
