<svg width="21" height="27" viewBox="0 0 21 27" fill="none" xmlns="http://www.w3.org/2000/svg">
<path d="M19.5858 23.465C19.7189 23.6381 19.8246 23.8438 19.8967 24.0702C19.9688 24.2967 20.0059 24.5394 20.0059 24.7846C20.0059 25.0298 19.9688 25.2726 19.8967 25.4991C19.8246 25.7255 19.7189 25.9312 19.5858 26.1043C19.3162 26.4513 18.9527 26.6458 18.5739 26.6458C18.1952 26.6458 17.8316 26.4513 17.5621 26.1043L10.003 16.2459L2.44385 26.1043C2.17428 26.4513 1.81076 26.6458 1.432 26.6458C1.05324 26.6458 0.689718 26.4513 0.420151 26.1043C0.286978 25.9312 0.181312 25.7255 0.109213 25.4991C0.0371139 25.2726 0 25.0298 0 24.7846C0 24.5394 0.0371139 24.2967 0.109213 24.0702C0.181312 23.8438 0.286978 23.6381 0.420151 23.465L7.97926 13.6067L0.420151 3.74835C0.151792 3.39836 0.00102946 2.92368 0.00102946 2.42873C0.00102946 2.18365 0.0380428 1.94097 0.109956 1.71455C0.181869 1.48813 0.287273 1.2824 0.420151 1.1091C0.553029 0.93581 0.710779 0.798345 0.884392 0.704558C1.05801 0.610772 1.24408 0.5625 1.432 0.5625C1.81152 0.5625 2.17549 0.75912 2.44385 1.1091L10.003 10.9674L17.5621 1.1091C17.8304 0.75912 18.1944 0.5625 18.5739 0.5625C18.9534 0.5625 19.3174 0.75912 19.5858 1.1091C19.8541 1.45909 20.0049 1.93377 20.0049 2.42873C20.0049 2.92368 19.8541 3.39836 19.5858 3.74835L12.0267 13.6067L19.5858 23.465Z" fill="white"/>
</svg>
