<svg width="21" height="20" viewBox="0 0 21 20" fill="none" xmlns="http://www.w3.org/2000/svg">
<path d="M19.5858 17.561C19.7189 17.6938 19.8246 17.8514 19.8967 18.0251C19.9688 18.1987 20.0059 18.3849 20.0059 18.5729C20.0059 18.7609 19.9688 18.9471 19.8967 19.1207C19.8246 19.2943 19.7189 19.452 19.5858 19.5847C19.3162 19.8508 18.9527 20 18.5739 20C18.1952 20 17.8316 19.8508 17.5621 19.5847L10.003 12.0256L2.44385 19.5847C2.17428 19.8508 1.81076 20 1.432 20C1.05324 20 0.689718 19.8508 0.420151 19.5847C0.286978 19.452 0.181312 19.2943 0.109213 19.1207C0.0371139 18.9471 0 18.7609 0 18.5729C0 18.3849 0.0371139 18.1987 0.109213 18.0251C0.181312 17.8514 0.286978 17.6938 0.420151 17.561L7.97926 10.0019L0.420151 2.44282C0.151792 2.17446 0.00102946 1.81049 0.00102946 1.43097C0.00102946 1.24305 0.0380428 1.05698 0.109956 0.883362C0.181869 0.709749 0.287273 0.552 0.420151 0.419122C0.553029 0.286244 0.710779 0.180839 0.884392 0.108926C1.05801 0.0370133 1.24408 0 1.432 0C1.81152 0 2.17549 0.150763 2.44385 0.419122L10.003 7.97823L17.5621 0.419122C17.8304 0.150763 18.1944 0 18.5739 0C18.9534 0 19.3174 0.150763 19.5858 0.419122C19.8541 0.687481 20.0049 1.05145 20.0049 1.43097C20.0049 1.81049 19.8541 2.17446 19.5858 2.44282L12.0267 10.0019L19.5858 17.561Z" fill="white"/>
</svg>
